<svg width="599" height="425" viewBox="0 0 599 425" fill="none" xmlns="http://www.w3.org/2000/svg">
<path d="M84.793 380.628C197.857 439.791 381.156 439.791 494.207 380.628C607.258 321.464 607.271 225.536 494.207 166.372C381.143 107.209 197.844 107.209 84.793 166.372C-28.2576 225.536 -28.2711 321.464 84.793 380.628Z" fill="#FAFAFA"/>
<path d="M355.921 300.567C329.36 315.983 329.36 340.998 355.921 356.428C382.482 371.857 425.523 371.857 452.084 356.428C478.645 340.998 478.632 315.983 452.084 300.567C425.537 285.151 382.468 285.138 355.921 300.567Z" fill="#EBEBEB"/>
<path d="M77 80.1734L148 58L93.3784 96L77 80.1734Z" fill="#35B44B"/>
<path d="M148 58.2055L71.4046 71L55 55L148 58.2055Z" fill="#35B44B"/>
<path d="M71 70.8V90L76.5106 80.4068L148 58L71 70.8Z" fill="#455A64"/>
<path d="M71 89L82 85.0057L76.5068 80L71 89Z" fill="#35B44B"/>
<path d="M77 80L82 85.3318L80.399 86L77 80Z" fill="#455A64"/>
<path d="M59.0886 86.9998C58.8491 87.0042 58.6149 86.9302 58.4238 86.7898C58.2328 86.6494 58.0958 86.4506 58.035 86.2255C57.9742 86.0004 57.993 85.762 58.0885 85.5486C58.184 85.3351 58.3505 85.159 58.5614 85.0486C59.8438 84.3566 61.1405 83.6647 62.4229 83.125C62.55 83.0582 62.6898 83.0171 62.8338 83.0043C62.9778 82.9915 63.1229 83.0072 63.2605 83.0505C63.398 83.0937 63.5251 83.1636 63.6341 83.256C63.743 83.3483 63.8315 83.4611 63.8942 83.5876C63.9569 83.7142 63.9926 83.8517 63.999 83.992C64.0053 84.1323 63.9824 84.2723 63.9314 84.4038C63.8804 84.5352 63.8025 84.6552 63.7024 84.7565C63.6023 84.8578 63.4821 84.9383 63.349 84.9932C62.1094 85.5744 60.8412 86.1972 59.6016 86.8753C59.443 86.9553 59.2673 86.9979 59.0886 86.9998Z" fill="#E0E0E0"/>
<path d="M47.1158 195C46.9068 195.002 46.7021 194.941 46.5292 194.825C44.3105 193.286 42.2086 191.59 40.2401 189.751C40.1154 189.671 40.0098 189.565 39.9307 189.442C39.8516 189.318 39.8009 189.178 39.7822 189.033C39.7634 188.888 39.7771 188.74 39.8222 188.601C39.8672 188.461 39.9427 188.333 40.0432 188.225C40.1438 188.118 40.267 188.033 40.4043 187.976C40.5417 187.92 40.6898 187.894 40.8384 187.9C40.987 187.906 41.1325 187.944 41.2648 188.011C41.3971 188.077 41.513 188.172 41.6044 188.287C43.503 190.061 45.5322 191.694 47.6752 193.174C47.8518 193.298 47.9836 193.475 48.0516 193.678C48.1196 193.881 48.1202 194.1 48.0534 194.303C47.9866 194.506 47.8557 194.683 47.6798 194.809C47.5039 194.934 47.2921 195.001 47.0749 195H47.1158ZM36.4203 185.226C36.2692 185.228 36.1197 185.196 35.9828 185.134C35.8459 185.071 35.725 184.979 35.629 184.864C33.91 182.799 32.3461 180.614 30.9497 178.326C30.8086 178.096 30.766 177.821 30.8312 177.56C30.8965 177.3 31.0642 177.075 31.2976 176.936C31.531 176.797 31.8108 176.755 32.0756 176.82C32.3404 176.884 32.5685 177.049 32.7096 177.279C34.0547 179.485 35.5592 181.594 37.2115 183.589C37.3819 183.794 37.4632 184.057 37.4377 184.321C37.4121 184.585 37.2818 184.828 37.0751 184.998C36.8924 185.15 36.6595 185.231 36.4203 185.226ZM28.7397 173.009C28.5415 173.011 28.347 172.956 28.1799 172.852C28.0128 172.747 27.8803 172.596 27.7983 172.419C26.6835 169.988 25.7267 167.491 24.9335 164.941C24.8753 164.693 24.9147 164.432 25.0438 164.212C25.173 163.991 25.3822 163.827 25.6295 163.752C25.8768 163.677 26.1437 163.697 26.3765 163.808C26.6093 163.919 26.7908 164.113 26.8843 164.35C27.6385 166.816 28.5498 169.233 29.6128 171.586C29.6699 171.707 29.7022 171.838 29.7078 171.971C29.7133 172.104 29.692 172.236 29.6451 172.361C29.5981 172.486 29.5265 172.601 29.4343 172.698C29.3421 172.795 29.2312 172.874 29.108 172.929C28.9919 172.98 28.8667 173.007 28.7397 173.009ZM24.3059 159.302C24.0693 159.3 23.8407 159.217 23.6592 159.068C23.4776 158.919 23.3542 158.712 23.31 158.483C22.7893 155.875 22.4203 153.239 22.205 150.589C22.1833 150.322 22.2703 150.058 22.4468 149.854C22.6233 149.65 22.875 149.523 23.1463 149.502C23.4177 149.48 23.6866 149.566 23.8938 149.74C24.101 149.914 24.2296 150.161 24.2514 150.428C24.452 153.002 24.8074 155.562 25.3154 158.094C25.3432 158.224 25.3442 158.358 25.3186 158.488C25.2929 158.618 25.241 158.742 25.166 158.852C25.091 158.962 24.9944 159.056 24.8818 159.129C24.7692 159.202 24.643 159.251 24.5106 159.275L24.3059 159.302ZM23.0099 144.964C22.875 144.964 22.7415 144.938 22.6172 144.886C22.4929 144.834 22.3803 144.759 22.2862 144.664C22.1921 144.569 22.1183 144.456 22.0692 144.332C22.0201 144.209 21.9967 144.077 22.0004 143.944C22.0323 141.287 22.2145 138.633 22.5461 135.996C22.5476 135.855 22.5795 135.715 22.6396 135.586C22.6997 135.458 22.7867 135.343 22.8949 135.25C23.0031 135.156 23.1301 135.087 23.2676 135.045C23.405 135.003 23.5499 134.99 23.6927 135.007C23.8355 135.025 23.973 135.071 24.0963 135.144C24.2196 135.217 24.3259 135.315 24.4082 135.431C24.4906 135.547 24.5471 135.679 24.5741 135.818C24.6012 135.957 24.5981 136.1 24.5651 136.238C24.2497 138.804 24.0766 141.386 24.0467 143.971C24.0449 144.103 24.0167 144.233 23.9636 144.355C23.9106 144.476 23.8337 144.586 23.7374 144.679C23.6411 144.771 23.5273 144.844 23.4025 144.893C23.2777 144.942 23.1443 144.966 23.0099 144.964ZM24.6743 130.666C24.5975 130.679 24.5191 130.679 24.4423 130.666C24.1787 130.608 23.949 130.45 23.8033 130.227C23.6577 130.003 23.6078 129.731 23.6647 129.471C24.2625 126.871 25.028 124.31 25.9566 121.806C26.0018 121.675 26.0739 121.555 26.1683 121.453C26.2627 121.35 26.3774 121.269 26.5054 121.212C26.6333 121.155 26.7717 121.125 26.912 121.123C27.0523 121.121 27.1915 121.148 27.3209 121.201C27.4525 121.248 27.5733 121.319 27.676 121.413C27.7787 121.506 27.8612 121.619 27.9186 121.744C27.9759 121.869 28.0069 122.005 28.0097 122.142C28.0125 122.28 27.987 122.416 27.9348 122.544C27.0396 124.966 26.3015 127.441 25.7247 129.955C25.6573 130.173 25.5167 130.362 25.3259 130.491C25.1351 130.621 24.9054 130.682 24.6743 130.666ZM29.5309 117.107C29.3736 117.113 29.2177 117.076 29.0807 116.999C28.9586 116.943 28.8492 116.864 28.7588 116.766C28.6684 116.667 28.5989 116.552 28.5544 116.427C28.51 116.302 28.4913 116.169 28.4997 116.037C28.5081 115.905 28.5433 115.776 28.6032 115.657C29.794 113.264 31.1335 110.946 32.6141 108.716C32.7632 108.508 32.9868 108.363 33.2399 108.311C33.493 108.259 33.7568 108.303 33.9783 108.434C34.1946 108.577 34.3465 108.796 34.4024 109.046C34.4583 109.296 34.4139 109.558 34.2784 109.777C32.8393 111.931 31.5407 114.173 30.3904 116.489C30.3198 116.661 30.2019 116.809 30.0501 116.919C29.8982 117.028 29.7184 117.093 29.5309 117.107ZM37.3752 105.024C37.1471 105.026 36.9252 104.95 36.7477 104.809C36.6413 104.727 36.5526 104.625 36.4868 104.508C36.4209 104.392 36.3791 104.264 36.3639 104.131C36.3487 103.999 36.3603 103.865 36.3981 103.737C36.4358 103.609 36.499 103.49 36.584 103.386C38.2888 101.314 40.1106 99.337 42.0409 97.4657C42.2328 97.2771 42.4928 97.1712 42.7639 97.1712C43.0351 97.1712 43.2951 97.2771 43.487 97.4657C43.6786 97.6545 43.7862 97.9104 43.7862 98.1772C43.7862 98.4441 43.6786 98.7 43.487 98.8888C41.6278 100.714 39.8699 102.637 38.2211 104.648C38.1154 104.763 37.9839 104.852 37.837 104.908C37.6901 104.964 37.532 104.985 37.3752 104.97V105.024ZM47.6343 94.7135C47.4855 94.7132 47.3387 94.6806 47.2042 94.6179C47.0698 94.5552 46.9511 94.4641 46.8566 94.351C46.6838 94.1452 46.5999 93.8809 46.6228 93.6148C46.6458 93.3488 46.7738 93.1022 46.9794 92.928C49.0562 91.2284 51.219 89.6333 53.4595 88.1486C53.6794 88.0159 53.9422 87.9698 54.1951 88.0196C54.4481 88.0693 54.6726 88.2113 54.8237 88.4171C54.976 88.6401 55.0328 88.9132 54.9817 89.1771C54.9306 89.441 54.7758 89.6745 54.5509 89.8267C52.365 91.2711 50.2567 92.8261 48.2345 94.4853C48.0632 94.6205 47.8535 94.7002 47.6343 94.7135Z" fill="#E0E0E0"/>
<path d="M55.9441 200.986C55.7897 200.987 55.637 200.953 55.498 200.887C54.1596 200.291 52.8355 199.653 51.5691 198.973C51.4452 198.909 51.3355 198.821 51.246 198.715C51.1566 198.609 51.0892 198.487 51.0478 198.355C51.0063 198.224 50.9916 198.085 51.0045 197.948C51.0174 197.811 51.0577 197.678 51.1229 197.556C51.2573 197.312 51.4829 197.13 51.7518 197.048C52.0206 196.966 52.3114 196.99 52.5621 197.116C53.7998 197.768 55.0806 198.392 56.3759 198.973C56.598 199.075 56.7784 199.248 56.8873 199.464C56.9963 199.68 57.0274 199.926 56.9755 200.162C56.9236 200.398 56.7918 200.609 56.6017 200.762C56.4117 200.914 56.1747 200.998 55.9297 201L55.9441 200.986Z" fill="#E0E0E0"/>
<path d="M517 152L573.928 116L599 123.95L517 152Z" fill="#35B44B"/>
<path d="M517 152L566 110.707L555.104 98L517 152Z" fill="#35B44B"/>
<path d="M566 111V120.51L517 152L566 111Z" fill="#455A64"/>
<path d="M577.4 107C577.156 107.001 576.921 106.909 576.742 106.744C576.543 106.565 576.422 106.316 576.404 106.049C576.387 105.782 576.474 105.519 576.647 105.316C578.398 103.358 579.951 101.232 581.285 98.9688C581.42 98.7365 581.642 98.5677 581.902 98.4994C582.161 98.4312 582.437 98.4692 582.669 98.605C582.901 98.7408 583.069 98.9633 583.137 99.2236C583.205 99.4839 583.168 99.7606 583.032 99.9929C581.624 102.366 579.995 104.599 578.166 106.663C578.07 106.771 577.952 106.857 577.82 106.915C577.688 106.973 577.545 107.002 577.4 107ZM585.089 94.4412C584.968 94.4604 584.846 94.4604 584.726 94.4412C584.598 94.3925 584.482 94.3183 584.384 94.2233C584.286 94.1283 584.209 94.0144 584.156 93.8885C584.103 93.7625 584.076 93.6272 584.077 93.4906C584.078 93.354 584.107 93.219 584.161 93.0937C585.111 90.6393 585.822 88.0987 586.285 85.5073C586.333 85.2428 586.484 85.0084 586.705 84.8555C586.925 84.7026 587.197 84.6438 587.461 84.6921C587.725 84.7403 587.959 84.8916 588.111 85.1127C588.264 85.3339 588.322 85.6067 588.274 85.8711C587.779 88.5865 587.027 91.2486 586.029 93.8214C585.953 94.0079 585.823 94.1669 585.655 94.2776C585.487 94.3882 585.29 94.4453 585.089 94.4412ZM587.965 79.9825C587.833 79.9808 587.703 79.9528 587.582 79.9003C587.461 79.8477 587.352 79.7715 587.261 79.6762C587.169 79.581 587.098 79.4684 587.05 79.3452C587.003 79.222 586.98 79.0905 586.984 78.9585C586.984 78.6081 586.984 78.2578 586.984 77.9074C586.978 75.6197 586.798 73.3358 586.446 71.0756C586.407 70.8097 586.474 70.5392 586.633 70.3224C586.791 70.1056 587.028 69.9599 587.293 69.9167C587.558 69.8814 587.826 69.95 588.041 70.1082C588.257 70.2664 588.403 70.502 588.449 70.7657C588.812 73.1289 588.996 75.5163 589 77.9074C589 78.2712 589 78.6351 589 78.9989C588.99 79.2658 588.875 79.518 588.682 79.7017C588.489 79.8855 588.231 79.9863 587.965 79.9825ZM585.935 65.3757C585.719 65.3749 585.509 65.3035 585.337 65.1722C585.164 65.0409 585.04 64.8569 584.981 64.648C584.21 62.1197 583.244 59.6553 582.091 57.2772C582.032 57.1581 581.997 57.0283 581.989 56.8955C581.981 56.7627 581.999 56.6296 582.043 56.504C582.087 56.3785 582.155 56.263 582.244 56.1643C582.334 56.0657 582.441 55.9859 582.562 55.9297C582.802 55.8139 583.079 55.7985 583.331 55.8869C583.583 55.9753 583.79 56.1603 583.906 56.4013C585.108 58.8725 586.11 61.4365 586.903 64.0686C586.942 64.1951 586.956 64.3282 586.943 64.46C586.931 64.5918 586.892 64.7198 586.829 64.8365C586.767 64.9532 586.682 65.0562 586.579 65.1395C586.476 65.2228 586.358 65.2848 586.231 65.3218C586.137 65.3591 586.037 65.3775 585.935 65.3757ZM579.699 51.995C579.529 51.9966 579.362 51.9539 579.213 51.8713C579.065 51.7886 578.94 51.6687 578.852 51.5234C577.411 49.3058 575.826 47.1857 574.107 45.1767C574.02 45.0759 573.954 44.959 573.913 44.8326C573.871 44.7062 573.855 44.5728 573.865 44.4401C573.875 44.3074 573.911 44.178 573.971 44.0592C574.031 43.9405 574.114 43.8349 574.215 43.7483C574.314 43.6617 574.43 43.5958 574.555 43.5543C574.68 43.5128 574.811 43.4966 574.943 43.5066C575.074 43.5166 575.202 43.5527 575.319 43.6127C575.437 43.6727 575.541 43.7554 575.626 43.8561C577.41 45.9356 579.054 48.1325 580.545 50.4319C580.669 50.6538 580.708 50.9136 580.653 51.1621C580.599 51.4105 580.455 51.6302 580.25 51.7794C580.089 51.898 579.898 51.9681 579.699 51.9815V51.995ZM570.29 40.6626C570.033 40.6617 569.787 40.5601 569.604 40.3796C567.669 38.5635 565.636 36.8542 563.515 35.2591C563.409 35.1795 563.32 35.0797 563.253 34.9655C563.185 34.8513 563.141 34.7249 563.122 34.5935C563.104 34.4621 563.111 34.3283 563.144 34.1998C563.177 34.0712 563.234 33.9504 563.314 33.8442C563.393 33.738 563.493 33.6486 563.607 33.581C563.721 33.5134 563.847 33.4689 563.978 33.4501C564.109 33.4314 564.242 33.4386 564.37 33.4716C564.499 33.5045 564.619 33.5625 564.725 33.6421C566.91 35.2792 569.001 37.0382 570.989 38.9108C571.138 39.0497 571.242 39.2307 571.287 39.4301C571.332 39.6294 571.315 39.8377 571.239 40.0274C571.164 40.2171 571.032 40.3793 570.863 40.4927C570.693 40.6061 570.494 40.6653 570.29 40.6626ZM558.502 31.6882C558.311 31.6864 558.124 31.6304 557.964 31.5265C557.05 30.9606 556.096 30.3946 555.128 29.8421C553.784 29.0875 552.44 28.3329 551.015 27.6188C550.885 27.5665 550.767 27.4876 550.669 27.3871C550.571 27.2867 550.495 27.1668 550.446 27.0353C550.397 26.9037 550.376 26.7633 550.384 26.6231C550.392 26.4828 550.429 26.3458 550.493 26.2207C550.556 26.0956 550.646 25.9852 550.754 25.8966C550.863 25.808 550.989 25.743 551.124 25.706C551.259 25.6689 551.401 25.6604 551.539 25.6812C551.678 25.702 551.811 25.7515 551.929 25.8266C553.34 26.5542 554.752 27.3088 556.123 28.0904C557.117 28.6429 558.085 29.2223 559.026 29.8152C559.243 29.9542 559.399 30.1713 559.462 30.4219C559.524 30.6725 559.488 30.9376 559.362 31.1627C559.275 31.3165 559.151 31.4455 559 31.5375C558.849 31.6294 558.678 31.6813 558.502 31.6882ZM438.001 31.001C437.824 30.9991 437.65 30.9508 437.496 30.861C437.343 30.7713 437.216 30.643 437.127 30.4889C437 30.2614 436.967 29.9928 437.034 29.7409C437.102 29.489 437.266 29.2738 437.49 29.1414C439.829 27.7939 442.235 26.4464 444.668 25.3145C444.907 25.1978 445.182 25.1804 445.434 25.2662C445.686 25.352 445.893 25.5341 446.012 25.7727C446.124 26.0145 446.137 26.2905 446.05 26.5422C445.962 26.7938 445.779 27.0012 445.542 27.1202C443.149 28.2925 440.783 29.5457 438.485 30.8797C438.335 30.9531 438.168 30.9856 438.001 30.974V31.001ZM545.397 24.8429C545.257 24.8438 545.118 24.8115 544.993 24.7486C542.574 23.6841 540.074 22.6869 537.574 21.7976C537.321 21.7064 537.114 21.5183 536.999 21.2744C536.885 21.0305 536.871 20.751 536.962 20.4972C537.053 20.2435 537.241 20.0364 537.484 19.9214C537.727 19.8064 538.006 19.793 538.259 19.8841C540.8 20.8004 543.34 21.8111 545.813 22.9025C546.029 22.9945 546.206 23.1588 546.314 23.3674C546.422 23.5759 546.454 23.8156 546.404 24.0452C546.355 24.2749 546.227 24.4801 546.043 24.6257C545.86 24.7713 545.631 24.8481 545.397 24.8429ZM451.241 24.4252C451.042 24.4265 450.847 24.3682 450.682 24.2577C450.517 24.1473 450.388 23.9897 450.313 23.8054C450.258 23.6818 450.228 23.5484 450.226 23.413C450.223 23.2777 450.247 23.1432 450.297 23.0175C450.348 22.8918 450.422 22.7775 450.518 22.6814C450.613 22.5852 450.726 22.5092 450.851 22.4579C453.337 21.4068 455.891 20.4366 458.445 19.5607C458.573 19.5074 458.711 19.4813 458.85 19.484C458.989 19.4866 459.126 19.518 459.252 19.5763C459.378 19.6345 459.491 19.7182 459.584 19.8222C459.676 19.9262 459.746 20.0482 459.789 20.1806C459.838 20.3105 459.861 20.4489 459.855 20.5876C459.85 20.7264 459.816 20.8626 459.758 20.9883C459.699 21.1139 459.615 21.2264 459.512 21.3192C459.409 21.4119 459.288 21.4829 459.158 21.5281C456.644 22.3905 454.117 23.3472 451.684 24.3713C451.54 24.4115 451.389 24.4207 451.241 24.3982V24.4252ZM531.525 19.7629C531.432 19.7759 531.337 19.7759 531.243 19.7629C528.703 19.0217 526.095 18.4154 523.501 17.782C523.371 17.7537 523.248 17.7001 523.139 17.6241C523.03 17.5482 522.937 17.4515 522.865 17.3395C522.793 17.2275 522.744 17.1024 522.721 16.9714C522.697 16.8405 522.7 16.7061 522.728 16.576C522.756 16.446 522.81 16.3227 522.885 16.2134C522.961 16.1041 523.058 16.0108 523.169 15.9388C523.281 15.8669 523.406 15.8177 523.536 15.7941C523.667 15.7705 523.801 15.7729 523.931 15.8012C526.619 16.3806 529.227 17.0679 531.807 17.8225C532.04 17.8906 532.241 18.0406 532.373 18.2451C532.504 18.4496 532.557 18.6947 532.523 18.9356C532.489 19.1764 532.369 19.3967 532.186 19.5561C532.002 19.7155 531.768 19.8033 531.525 19.8033V19.7629ZM465.193 19.5607C464.973 19.5599 464.759 19.487 464.585 19.3532C464.41 19.2194 464.283 19.032 464.225 18.8196C464.188 18.6931 464.176 18.5605 464.191 18.4295C464.206 18.2985 464.246 18.1717 464.31 18.0564C464.373 17.9411 464.459 17.8396 464.562 17.7579C464.666 17.6761 464.784 17.6156 464.91 17.5799C467.505 16.8523 470.166 16.2324 472.814 15.6395C472.948 15.5966 473.09 15.5823 473.23 15.5976C473.37 15.6129 473.505 15.6575 473.627 15.7284C473.749 15.7994 473.854 15.8951 473.937 16.0095C474.019 16.1238 474.077 16.2543 474.106 16.3924C474.136 16.5305 474.136 16.6732 474.107 16.8114C474.077 16.9495 474.02 17.08 473.937 17.1944C473.855 17.3089 473.749 17.4047 473.627 17.4757C473.506 17.5468 473.371 17.5914 473.231 17.6069C470.623 18.1593 468.015 18.8061 465.461 19.5203L465.193 19.5607ZM517.116 16.5154H516.915C514.294 16.0977 511.619 15.7608 508.984 15.5182C508.845 15.5167 508.708 15.4865 508.582 15.4294C508.455 15.3723 508.342 15.2896 508.248 15.1864C508.155 15.0833 508.084 14.962 508.04 14.8301C507.996 14.6982 507.979 14.5585 507.991 14.4198C508.003 14.2812 508.044 14.1465 508.11 14.0243C508.176 13.902 508.267 13.7949 508.377 13.7095C508.487 13.6241 508.613 13.5624 508.747 13.5281C508.882 13.4939 509.022 13.4879 509.159 13.5105C511.847 13.753 514.535 14.0899 517.224 14.5211C517.486 14.5674 517.72 14.7143 517.875 14.9308C518.031 15.1472 518.096 15.416 518.057 15.6799C518.01 15.898 517.892 16.0942 517.722 16.2381C517.551 16.3819 517.339 16.4652 517.116 16.475V16.5154ZM479.629 16.4211C479.389 16.4209 479.158 16.3355 478.975 16.18C478.793 16.0244 478.672 15.809 478.634 15.5721C478.595 15.3062 478.662 15.0357 478.821 14.8189C478.979 14.6021 479.216 14.4564 479.481 14.4133C482.169 14.009 484.857 13.6722 487.545 13.4431C487.678 13.4316 487.811 13.4463 487.938 13.4865C488.065 13.5267 488.182 13.5914 488.284 13.6772C488.386 13.7629 488.469 13.8678 488.531 13.986C488.592 14.1043 488.629 14.2334 488.641 14.3661C488.652 14.4988 488.638 14.6325 488.598 14.7595C488.558 14.8866 488.493 15.0044 488.407 15.1064C488.322 15.2084 488.217 15.2925 488.099 15.3539C487.981 15.4153 487.853 15.4528 487.72 15.4643C485.032 15.6934 482.411 16.0033 479.79 16.4211H479.629ZM502.411 15.0736C499.723 14.9792 497.035 14.9658 494.414 15.0736C494.282 15.0808 494.149 15.0612 494.025 15.0159C493.901 14.9706 493.787 14.9005 493.69 14.8099C493.593 14.7192 493.516 14.6099 493.462 14.4885C493.409 14.3671 493.381 14.2361 493.379 14.1034C493.374 13.9702 493.395 13.8373 493.442 13.7125C493.488 13.5877 493.559 13.4735 493.651 13.3768C493.742 13.2801 493.852 13.2027 493.974 13.1493C494.096 13.0959 494.227 13.0675 494.36 13.0658C497.048 12.9715 499.737 12.9849 502.425 13.0658C502.557 13.0693 502.688 13.0989 502.809 13.1529C502.93 13.207 503.039 13.2844 503.13 13.3807C503.221 13.4771 503.292 13.5905 503.34 13.7145C503.387 13.8385 503.41 13.9706 503.406 14.1034C503.386 14.3561 503.273 14.5925 503.09 14.7668C502.906 14.941 502.664 15.0407 502.411 15.0466V15.0736Z" fill="#E0E0E0"/>
<path d="M496 171.972V169.797H495.483C494.697 168.324 493.503 167.123 492.052 166.345C489.092 164.803 485.819 164 482.5 164C479.181 164 475.908 164.803 472.948 166.345C471.497 167.123 470.303 168.324 469.517 169.797H469V171.904C469 173.983 470.325 176.077 472.974 177.667C475.937 179.201 479.208 180 482.526 180C485.845 180 489.116 179.201 492.078 177.667C494.702 176.131 496.013 174.038 496 171.972Z" fill="#37474F"/>
<path d="M482.5 178C489.956 178 496 174.418 496 170C496 165.582 489.956 162 482.5 162C475.044 162 469 165.582 469 170C469 174.418 475.044 178 482.5 178Z" fill="#455A64"/>
<path d="M480 104V168.968C480.029 169.276 480.137 169.571 480.316 169.824C480.494 170.076 480.735 170.277 481.015 170.406C481.784 170.796 482.632 171 483.493 171C484.354 171 485.203 170.796 485.971 170.406C486.255 170.28 486.499 170.08 486.68 169.828C486.861 169.575 486.972 169.278 487 168.968V104H480Z" fill="#37474F"/>
<path d="M498.8 54.6796C495.348 52.6983 492.207 52.5366 489.851 53.8439L446 79.0749L468 123L512 97.6612V78.4414C512 69.5055 506.084 58.8713 498.8 54.6796Z" fill="#455A64"/>
<path d="M468 103.628V123L442 107.714V88.3563C442 79.356 447.816 75.4871 454.993 79.709C459.596 82.424 463.638 87.7726 465.946 93.637C467.237 96.8079 467.934 100.197 468 103.628Z" fill="#37474F"/>
<path d="M468 103.868V123L442 107.903L465.946 94C467.237 97.1317 467.934 100.479 468 103.868Z" fill="#263238"/>
<path d="M463.672 110.334C461.288 103.347 453.538 94.2822 446.36 90.1006C439.182 85.9191 435.32 88.1717 437.704 95.1589L442.032 107.812L468 123C468 123 466.069 117.321 463.672 110.334Z" fill="#455A64"/>
<path d="M482 105.056L480.587 104.184C480.283 104.036 479.948 103.975 479.616 104.009C479.284 104.043 478.965 104.17 478.694 104.378C477.913 104.923 477.263 105.657 476.797 106.52C476.331 107.382 476.061 108.35 476.01 109.344C475.975 109.7 476.03 110.06 476.169 110.386C476.308 110.712 476.526 110.992 476.801 111.198L478.098 112L478.344 111.571C478.613 111.509 478.871 111.402 479.109 111.253C479.89 110.711 480.539 109.98 481.006 109.119C481.472 108.259 481.742 107.293 481.793 106.301C481.791 106.053 481.761 105.807 481.702 105.568L482 105.056Z" fill="#263238"/>
<path d="M480 104.372C479.127 104.886 478.401 105.579 477.879 106.395C477.358 107.211 477.057 108.126 477 109.067C477 110.798 478.348 111.493 480 110.628C480.873 110.115 481.6 109.422 482.121 108.606C482.642 107.79 482.943 106.874 482.999 105.933C483.043 104.202 481.593 103.507 480 104.372Z" fill="#37474F"/>
<path d="M480 108C479.869 108 479.739 107.979 479.617 107.939C479.496 107.899 479.386 107.841 479.293 107.767C479.2 107.693 479.126 107.605 479.076 107.508C479.026 107.411 479 107.308 479 107.203V79.7971C479 79.5857 479.105 79.3829 479.293 79.2335C479.48 79.084 479.735 79 480 79C480.265 79 480.52 79.084 480.707 79.2335C480.895 79.3829 481 79.5857 481 79.7971V107.203C481 107.414 480.895 107.617 480.707 107.767C480.52 107.916 480.265 108 480 108Z" fill="#263238"/>
<path d="M481 80.7297V88L489 80L481 80.7297Z" fill="#37474F"/>
<path d="M71.006 322.657C70.3385 323.023 58.0832 326.539 53.5443 320.467C49.0053 314.395 56.548 304.928 52.2894 301.439C48.0307 297.95 36.0959 301.439 33.2256 294.11C30.3554 286.78 38.8593 283.616 34.08 276.219C31.0629 271.553 22.6257 268.984 23.0129 264.643C23.5736 258.3 35.108 256.529 45.1738 263.385C55.2397 270.241 59.9389 264.616 63.1295 264.156C66.3202 263.696 73.2087 264.71 72.9951 276.07C72.7815 287.429 71.006 322.657 71.006 322.657Z" fill="#35B44B"/>
<path d="M72.3368 307C72.1773 306.999 72.023 306.942 71.9009 306.838C71.7787 306.733 71.6964 306.589 71.6682 306.429C68.1516 284.683 43.3746 267.11 30.4847 263.332C30.3995 263.309 30.3197 263.268 30.2503 263.212C30.1809 263.157 30.1232 263.088 30.0807 263.009C30.0382 262.93 30.0119 262.844 30.0032 262.754C29.9945 262.665 30.0037 262.575 30.0301 262.489C30.0798 262.316 30.195 262.17 30.3505 262.084C30.506 261.997 30.6889 261.977 30.8591 262.027C44.0298 265.901 69.3818 283.963 72.992 306.212C73.0191 306.388 72.9768 306.568 72.8742 306.713C72.7716 306.858 72.617 306.956 72.4438 306.986L72.3368 307Z" fill="white"/>
<path d="M42.6691 287.995C42.5234 287.997 42.3812 287.951 42.2647 287.865C42.1481 287.78 42.0637 287.659 42.0245 287.521C41.9852 287.384 41.9934 287.237 42.0476 287.105C42.1019 286.972 42.1992 286.861 42.3245 286.788C42.7221 286.554 52.1844 281.141 61.4876 283.673C61.6634 283.717 61.8137 283.829 61.9057 283.982C61.9977 284.135 62.0237 284.318 61.978 284.49C61.9323 284.663 61.8186 284.81 61.6621 284.9C61.5055 284.99 61.3188 285.015 61.1431 284.971C52.3699 282.582 43.0932 287.892 43.0004 287.943C42.8973 287.991 42.7823 288.009 42.6691 287.995Z" fill="white"/>
<path d="M423.6 208.896C428.935 209.631 438.022 206.529 438.672 197.606C439.322 188.683 442.992 186.262 449.723 184.807C456.453 183.351 458.431 180.998 459.202 176.754C459.974 172.51 454.855 167.437 456.291 161.044C457.726 154.651 462.52 154.664 467.233 147.442C470.253 142.79 464.064 135.689 453.758 138.736C443.453 141.783 444.279 148.462 433.973 149.319C423.667 150.176 417.208 156.46 417.004 164.281C416.801 172.102 423.6 208.896 423.6 208.896Z" fill="#35B44B"/>
<path opacity="0.2" d="M423.6 208.896C428.935 209.631 438.022 206.529 438.672 197.606C439.322 188.683 442.992 186.262 449.723 184.807C456.453 183.351 458.431 180.998 459.202 176.754C459.974 172.51 454.855 167.437 456.291 161.044C457.726 154.651 462.52 154.664 467.233 147.442C470.253 142.79 464.064 135.689 453.758 138.736C443.453 141.783 444.279 148.462 433.973 149.319C423.667 150.176 417.208 156.46 417.004 164.281C416.801 172.102 423.6 208.896 423.6 208.896Z" fill="black"/>
<path d="M421.627 190.998H421.545C421.458 190.98 421.374 190.946 421.3 190.896C421.226 190.847 421.162 190.784 421.113 190.71C421.064 190.636 421.029 190.553 421.012 190.467C420.995 190.38 420.996 190.291 421.014 190.204C426.031 165.728 453.391 143.323 460.057 141.036C460.238 140.977 460.435 140.991 460.605 141.076C460.775 141.16 460.904 141.308 460.964 141.486C461.024 141.665 461.009 141.859 460.923 142.027C460.838 142.195 460.688 142.322 460.507 142.381C453.991 144.615 427.257 166.602 422.336 190.541C422.286 190.683 422.189 190.805 422.06 190.888C421.932 190.971 421.78 191.009 421.627 190.998Z" fill="white"/>
<path d="M66 182.402C66.0658 181.185 66.4173 180.002 67.0259 178.947C67.6346 177.893 68.4831 176.997 69.5027 176.332L248.558 72.8298C249.643 72.2842 250.84 72 252.054 72C253.268 72 254.465 72.2842 255.55 72.8298L259.497 75.1227C260.519 75.7848 261.369 76.6802 261.978 77.7353C262.587 78.7904 262.937 79.9751 263 81.1921V218.602C262.931 219.817 262.578 221 261.97 222.054C261.361 223.108 260.515 224.004 259.497 224.671L80.4419 328.16C79.3566 328.712 78.1565 329 76.9392 329C75.7219 329 74.5218 328.712 73.4365 328.16L69.5027 325.881C68.4846 325.215 67.6372 324.318 67.0288 323.264C66.4203 322.21 66.0679 321.027 66 319.812V182.402Z" fill="#35B44B"/>
<path opacity="0.3" d="M66 182.402C66.0658 181.185 66.4173 180.002 67.0259 178.947C67.6346 177.893 68.4831 176.997 69.5027 176.332L248.558 72.8298C249.643 72.2842 250.84 72 252.054 72C253.268 72 254.465 72.2842 255.55 72.8298L259.497 75.1227C260.519 75.7848 261.369 76.6802 261.978 77.7353C262.587 78.7904 262.937 79.9751 263 81.1921V218.602C262.931 219.817 262.578 221 261.97 222.054C261.361 223.108 260.515 224.004 259.497 224.671L80.4419 328.16C79.3566 328.712 78.1565 329 76.9392 329C75.7219 329 74.5218 328.712 73.4365 328.16L69.5027 325.881C68.4846 325.215 67.6372 324.318 67.0288 323.264C66.4203 322.21 66.0679 321.027 66 319.812V182.402Z" fill="black"/>
<path d="M82 187.899L66.9984 179C66.3851 180.045 66.0415 181.233 66 182.452V319.815C66.0662 321.03 66.4098 322.212 67.0031 323.266C67.5964 324.32 68.4227 325.216 69.4154 325.882L73.2512 328.161C74.3095 328.712 75.4797 329 76.6667 329C77.8537 329 79.0239 328.712 80.0821 328.161L82 327.028V187.899Z" fill="#35B44B"/>
<path opacity="0.5" d="M82 187.899L66.9984 179C66.3851 180.045 66.0415 181.233 66 182.452V319.815C66.0662 321.03 66.4098 322.212 67.0031 323.266C67.5964 324.32 68.4227 325.216 69.4154 325.882L73.2512 328.161C74.3095 328.712 75.4797 329 76.6667 329C77.8537 329 79.0239 328.712 80.0821 328.161L82 327.028V187.899Z" fill="black"/>
<path d="M263 80.935V218.7C262.955 219.961 262.578 221.188 261.909 222.257C261.392 223.156 260.695 223.939 259.862 224.555L259.728 224.637L259.499 224.785L80.5094 328.542C80.1668 328.785 79.7688 328.937 79.3521 328.984C78.9354 329.031 78.5136 328.972 78.1257 328.812C77.7529 328.577 77.4516 328.243 77.2545 327.847C77.0574 327.451 76.9722 327.009 77.008 326.568V188.748C76.9775 188.255 77.0666 187.762 77.2677 187.311C77.4688 186.86 77.7758 186.464 78.1624 186.158C78.5491 185.853 79.0038 185.646 79.4876 185.555C79.9714 185.464 80.4699 185.493 80.9403 185.638L156.207 203.609L166.065 205.962C167.228 206.181 168.429 206.076 169.538 205.659C170.646 205.242 171.62 204.529 172.354 203.596L183.774 187.626L260.643 80.1642C261.936 78.3522 263 78.6903 263 80.935Z" fill="#35B44B"/>
<path opacity="0.2" d="M263 80.935V218.7C262.955 219.961 262.578 221.188 261.909 222.257C261.392 223.156 260.695 223.939 259.862 224.555L259.728 224.637L259.499 224.785L80.5094 328.542C80.1668 328.785 79.7688 328.937 79.3521 328.984C78.9354 329.031 78.5136 328.972 78.1257 328.812C77.7529 328.577 77.4516 328.243 77.2545 327.847C77.0574 327.451 76.9722 327.009 77.008 326.568V188.748C76.9775 188.255 77.0666 187.762 77.2677 187.311C77.4688 186.86 77.7758 186.464 78.1624 186.158C78.5491 185.853 79.0038 185.646 79.4876 185.555C79.9714 185.464 80.4699 185.493 80.9403 185.638L156.207 203.609L166.065 205.962C167.228 206.181 168.429 206.076 169.538 205.659C170.646 205.242 171.62 204.529 172.354 203.596L183.774 187.626L260.643 80.1642C261.936 78.3522 263 78.6903 263 80.935Z" fill="black"/>
<path d="M259.509 224.909L259.737 224.761L259.871 224.68C260.702 224.068 261.397 223.29 261.912 222.395C262.572 221.35 262.947 220.15 263 218.914L184 188L236.908 238L259.509 224.909Z" fill="#35B44B"/>
<path opacity="0.6" d="M259.509 224.909L259.737 224.761L259.871 224.68C260.702 224.068 261.397 223.29 261.912 222.395C262.572 221.35 262.947 220.15 263 218.914L184 188L236.908 238L259.509 224.909Z" fill="black"/>
<path d="M77.0157 325.511C76.9644 325.958 77.0391 326.411 77.2314 326.818C77.4237 327.225 77.7258 327.57 78.1036 327.813C78.4904 327.972 78.9111 328.031 79.3267 327.984C79.7422 327.937 80.1392 327.786 80.4808 327.544L141.965 291.854L156 203L77.0157 323.182V325.511Z" fill="#35B44B"/>
<path opacity="0.6" d="M77.0157 325.511C76.9644 325.958 77.0391 326.411 77.2314 326.818C77.4237 327.225 77.7258 327.57 78.1036 327.813C78.4904 327.972 78.9111 328.031 79.3267 327.984C79.7422 327.937 80.1392 327.786 80.4808 327.544L141.965 291.854L156 203L77.0157 323.182V325.511Z" fill="black"/>
<path d="M262 222.193C261.482 223.093 260.785 223.876 259.951 224.493L259.816 224.574L80.3865 328.542C80.0435 328.785 79.645 328.937 79.2278 328.984C78.8106 329.031 78.3883 328.972 78 328.812L163.818 191.33C165.543 188.576 168.199 186.538 171.299 185.589C174.399 184.64 177.736 184.843 180.699 186.161L262 222.193Z" fill="#35B44B"/>
<path opacity="0.2" d="M262 222.193C261.482 223.093 260.785 223.876 259.951 224.493L259.816 224.574L80.3865 328.542C80.0435 328.785 79.645 328.937 79.2278 328.984C78.8106 329.031 78.3883 328.972 78 328.812L163.818 191.33C165.543 188.576 168.199 186.538 171.299 185.589C174.399 184.64 177.736 184.843 180.699 186.161L262 222.193Z" fill="black"/>
<path d="M77 184.409L159.488 220.85C162.458 222.162 165.801 222.358 168.904 221.404C172.008 220.449 174.663 218.408 176.383 215.654L263 77L77 184.409Z" fill="#35B44B"/>
<path opacity="0.6" d="M77 184.409L159.488 220.85C162.458 222.162 165.801 222.358 168.904 221.404C172.008 220.449 174.663 218.408 176.383 215.654L263 77L77 184.409Z" fill="black"/>
<path d="M77 184.174L160.068 215.149C162.939 216.219 166.089 216.282 169 215.327C171.911 214.373 174.41 212.457 176.086 209.897L263 77L77 184.174Z" fill="#35B44B"/>
<path opacity="0.2" d="M77 184.174L160.068 215.149C162.939 216.219 166.089 216.282 169 215.327C171.911 214.373 174.41 212.457 176.086 209.897L263 77L77 184.174Z" fill="black"/>
<path d="M97 199.417C97.0626 198.2 97.4127 197.016 98.0216 195.96C98.6306 194.905 99.4809 194.01 100.503 193.348L279.558 89.8398C280.643 89.2877 281.843 89 283.061 89C284.278 89 285.478 89.2877 286.563 89.8398L290.511 92.1193C291.528 92.7853 292.374 93.682 292.98 94.7366C293.586 95.7911 293.936 96.9739 294 98.189V235.606C293.934 236.821 293.583 238.003 292.977 239.057C292.371 240.111 291.526 241.008 290.511 241.676L111.442 345.17C110.357 345.716 109.16 346 107.946 346C106.732 346 105.535 345.716 104.45 345.17L100.503 342.891C99.4854 342.224 98.6385 341.327 98.0301 340.273C97.4218 339.219 97.069 338.036 97 336.821V199.417Z" fill="#455A64"/>
<path d="M97 199.417C97.0626 198.2 97.4127 197.016 98.0216 195.96C98.6306 194.905 99.4809 194.01 100.503 193.348L279.558 89.8398C280.643 89.2877 281.843 89 283.061 89C284.278 89 285.478 89.2877 286.563 89.8398L290.511 92.1193C291.528 92.7853 292.374 93.682 292.98 94.7366C293.586 95.7911 293.936 96.9739 294 98.189V235.606C293.934 236.821 293.583 238.003 292.977 239.057C292.371 240.111 291.526 241.008 290.511 241.676L111.442 345.17C110.357 345.716 109.16 346 107.946 346C106.732 346 105.535 345.716 104.45 345.17L100.503 342.891C99.4854 342.224 98.6385 341.327 98.0301 340.273C97.4218 339.219 97.069 338.036 97 336.821V199.417Z" fill="#455A64"/>
<path d="M113 204.888L97.9975 196C97.3831 197.044 97.0397 198.233 97 199.453V336.822C97.0672 338.037 97.411 339.219 98.0037 340.273C98.5964 341.327 99.4215 342.224 100.413 342.891L104.258 345.17C105.315 345.716 106.482 346 107.664 346C108.847 346 110.014 345.716 111.071 345.17L113 344.024V204.888Z" fill="#263238"/>
<path d="M294 97.9238V235.695C293.955 236.956 293.578 238.183 292.909 239.252C292.392 240.152 291.695 240.934 290.862 241.551L290.727 241.632L290.498 241.781L111.491 345.542C111.148 345.785 110.75 345.937 110.333 345.984C109.916 346.031 109.495 345.972 109.107 345.812C108.728 345.568 108.425 345.221 108.232 344.813C108.039 344.404 107.964 343.949 108.016 343.5V205.742C107.985 205.249 108.074 204.755 108.276 204.304C108.477 203.853 108.784 203.458 109.17 203.152C109.557 202.846 110.012 202.639 110.496 202.549C110.98 202.458 111.478 202.486 111.949 202.632L187.223 220.604L197.082 222.957C198.246 223.176 199.447 223.071 200.555 222.654C201.664 222.237 202.638 221.523 203.372 220.59L214.779 204.62L291.657 97.153C292.896 95.3679 294 95.679 294 97.9238Z" fill="#37474F"/>
<path d="M289.521 241.915L289.75 241.767L289.884 241.686C290.715 241.073 291.41 240.295 291.926 239.4C292.578 238.356 292.948 237.161 293 235.931L214 205L266.904 255L289.521 241.915Z" fill="#263238"/>
<path d="M108.027 342.509C107.976 342.956 108.05 343.41 108.243 343.817C108.435 344.224 108.737 344.569 109.115 344.813C109.502 344.972 109.923 345.031 110.338 344.984C110.754 344.937 111.151 344.786 111.493 344.544L172.962 308.94L187 220L108 340.204L108.027 342.509Z" fill="#263238"/>
<path d="M293 239.199C292.482 240.099 291.784 240.882 290.95 241.499L290.816 241.58L111.387 345.542C111.044 345.785 110.645 345.937 110.228 345.984C109.811 346.031 109.388 345.972 109 345.812L194.811 208.351C196.532 205.593 199.186 203.549 202.286 202.595C205.387 201.641 208.726 201.84 211.693 203.156L293 239.199Z" fill="#37474F"/>
<path d="M108 201.429L190.494 237.855C193.463 239.163 196.803 239.357 199.903 238.403C203.004 237.449 205.657 235.411 207.376 232.661L294 94L108 201.429Z" fill="#263238"/>
<path d="M108 201.186L191.061 232.146C193.934 233.218 197.087 233.283 200.001 232.328C202.915 231.374 205.417 229.458 207.093 226.896L294 94L108 201.186Z" fill="#37474F"/>
<path d="M228 308.803V171.194C228.125 168.584 228.939 166.053 230.358 163.86L315.756 44.6344C317.314 42.4562 319.484 40.7921 321.989 39.854C324.493 38.916 327.22 38.7463 329.821 39.3667L410.127 58.506C412.715 59.1966 415.211 60.1941 417.564 61.4775L421.511 63.7602C422.526 64.4296 423.37 65.328 423.976 66.3836C424.582 67.4391 424.933 68.6223 425 69.8383V207.447C424.93 208.663 424.579 209.845 423.973 210.9C423.367 211.956 422.524 212.854 421.511 213.525L242.442 317.164C241.358 317.714 240.161 318 238.946 318C237.731 318 236.534 317.714 235.45 317.164L231.503 314.881C230.485 314.214 229.637 313.317 229.029 312.261C228.42 311.205 228.068 310.021 228 308.803Z" fill="#35B44B"/>
<path opacity="0.3" d="M228 308.803V171.194C228.125 168.584 228.939 166.053 230.358 163.86L315.756 44.6344C317.314 42.4562 319.484 40.7921 321.989 39.854C324.493 38.916 327.22 38.7463 329.821 39.3667L410.127 58.506C412.715 59.1966 415.211 60.1941 417.564 61.4775L421.511 63.7602C422.526 64.4296 423.37 65.328 423.976 66.3836C424.582 67.4391 424.933 68.6223 425 69.8383V207.447C424.93 208.663 424.579 209.845 423.973 210.9C423.367 211.956 422.524 212.854 421.511 213.525L242.442 317.164C241.358 317.714 240.161 318 238.946 318C237.731 318 236.534 317.714 235.45 317.164L231.503 314.881C230.485 314.214 229.637 313.317 229.029 312.261C228.42 311.205 228.068 310.021 228 308.803Z" fill="white"/>
<path d="M244 104.844V280.495C244 282.724 245.575 283.643 247.5 282.521L415.5 185.238C416.519 184.573 417.368 183.676 417.976 182.619C418.585 181.563 418.935 180.377 419 179.158V3.50787C419 1.26495 417.438 0.359678 415.5 1.48114L247.5 98.7643C246.481 99.43 245.633 100.328 245.025 101.384C244.417 102.44 244.066 103.626 244 104.844Z" fill="#FAFAFA"/>
<path d="M246.608 283C246.173 283.003 245.744 282.892 245.365 282.676C244.903 282.368 244.533 281.941 244.295 281.44C244.058 280.938 243.96 280.382 244.015 279.829V104.434C244.079 103.097 244.461 101.795 245.131 100.636C245.801 99.4767 246.738 98.4939 247.865 97.7693L416.438 0.627433C416.878 0.269462 417.416 0.0536918 417.982 0.008782C418.548 -0.0361278 419.114 0.0919486 419.605 0.376003C420.096 0.660058 420.489 1.08664 420.732 1.59907C420.974 2.1115 421.055 2.68552 420.963 3.24487V178.64C420.9 179.975 420.518 181.276 419.848 182.433C419.178 183.591 418.24 184.571 417.113 185.291L248.54 282.433C247.958 282.79 247.291 282.986 246.608 283ZM418.315 1.31552C417.879 1.34045 417.456 1.47504 417.086 1.70679L248.513 98.9161C247.595 99.5244 246.831 100.337 246.28 101.289C245.729 102.242 245.407 103.309 245.338 104.407V279.802C245.257 280.119 245.282 280.453 245.409 280.754C245.536 281.055 245.757 281.306 246.04 281.47C246.323 281.633 246.652 281.7 246.977 281.659C247.301 281.619 247.603 281.474 247.838 281.246L416.411 184.104C417.329 183.497 418.094 182.684 418.645 181.732C419.196 180.779 419.518 179.711 419.585 178.613V3.21789C419.623 2.90147 419.58 2.58057 419.46 2.28549C419.339 1.99041 419.145 1.73088 418.896 1.5314C418.726 1.40823 418.525 1.33362 418.315 1.31552Z" fill="#E0E0E0"/>
<path d="M240.682 174.001L228.642 167C228.252 168.183 228.036 169.416 228 170.662V307.828C228.067 309.042 228.417 310.222 229.022 311.274C229.626 312.327 230.467 313.222 231.478 313.887L235.385 316.162C236.46 316.713 237.65 317 238.856 317C240.063 317 241.252 316.713 242.328 316.162L244 315.206L240.682 174.001Z" fill="#35B44B"/>
<g opacity="0.1">
<path opacity="0.1" d="M240.682 174.001L228.642 167C228.252 168.183 228.036 169.416 228 170.662V307.828C228.067 309.042 228.417 310.222 229.022 311.274C229.626 312.327 230.467 313.222 231.478 313.887L235.385 316.162C236.46 316.713 237.65 317 238.856 317C240.063 317 241.252 316.713 242.328 316.162L244 315.206L240.682 174.001Z" fill="black"/>
</g>
<path d="M425 69.9238V207.695C424.955 208.957 424.578 210.183 423.909 211.252C423.392 212.152 422.695 212.934 421.862 213.551L421.727 213.632L421.498 213.781L242.491 317.542C242.148 317.785 241.75 317.937 241.333 317.984C240.917 318.031 240.495 317.972 240.107 317.812C239.728 317.568 239.425 317.221 239.232 316.813C239.039 316.404 238.964 315.949 239.016 315.5V177.742C238.985 177.249 239.074 176.755 239.276 176.304C239.477 175.853 239.784 175.458 240.17 175.152C240.557 174.846 241.012 174.639 241.496 174.549C241.98 174.458 242.478 174.486 242.949 174.632L318.183 192.604L328.041 194.957C329.207 195.178 330.411 195.075 331.522 194.657C332.634 194.24 333.61 193.525 334.345 192.59L345.766 176.62L422.643 69.153C423.936 67.3679 425 67.679 425 69.9238Z" fill="#35B44B"/>
<path opacity="0.3" d="M425 69.9238V207.695C424.955 208.957 424.578 210.183 423.909 211.252C423.392 212.152 422.695 212.934 421.862 213.551L421.727 213.632L421.498 213.781L242.491 317.542C242.148 317.785 241.75 317.937 241.333 317.984C240.917 318.031 240.495 317.972 240.107 317.812C239.728 317.568 239.425 317.221 239.232 316.813C239.039 316.404 238.964 315.949 239.016 315.5V177.742C238.985 177.249 239.074 176.755 239.276 176.304C239.477 175.853 239.784 175.458 240.17 175.152C240.557 174.846 241.012 174.639 241.496 174.549C241.98 174.458 242.478 174.486 242.949 174.632L318.183 192.604L328.041 194.957C329.207 195.178 330.411 195.075 331.522 194.657C332.634 194.24 333.61 193.525 334.345 192.59L345.766 176.62L422.643 69.153C423.936 67.3679 425 67.679 425 69.9238Z" fill="white"/>
<path d="M421.521 212.919L421.75 212.771L421.884 212.69C422.715 212.077 423.41 211.299 423.926 210.404C424.578 209.356 424.948 208.156 425 206.922L346 176L398.904 226L421.521 212.919Z" fill="#35B44B"/>
<path d="M239.027 314.509C238.976 314.956 239.05 315.41 239.243 315.817C239.435 316.224 239.737 316.569 240.115 316.813C240.502 316.972 240.923 317.031 241.338 316.984C241.754 316.937 242.151 316.786 242.493 316.544L303.962 280.94L318 192L239 312.204L239.027 314.509Z" fill="#35B44B"/>
<path d="M424 211.195C423.482 212.095 422.785 212.879 421.951 213.495L421.816 213.576L242.386 317.542C242.044 317.785 241.645 317.937 241.228 317.984C240.811 318.031 240.388 317.972 240 317.812L325.805 180.346C327.525 177.591 330.176 175.55 333.274 174.596C336.371 173.642 339.707 173.839 342.672 175.151L424 211.195Z" fill="#35B44B"/>
<path opacity="0.3" d="M424 211.195C423.482 212.095 422.785 212.879 421.951 213.495L421.816 213.576L242.386 317.542C242.044 317.785 241.645 317.937 241.228 317.984C240.811 318.031 240.388 317.972 240 317.812L325.805 180.346C327.525 177.591 330.176 175.55 333.274 174.596C336.371 173.642 339.707 173.839 342.672 175.151L424 211.195Z" fill="white"/>
<path d="M318.824 144.883C317.236 145.129 315.613 144.985 314.093 144.463C312.574 143.942 311.204 143.058 310.102 141.889C308.034 139.589 307 136.037 307 131.26C307.003 125.87 308.159 120.544 310.388 115.637C312.676 110.587 315.836 105.981 319.722 102.027C323.9 97.6935 328.663 93.9648 333.872 90.9491C338.979 88.0094 343.337 86.3808 346.948 86.0633C350.581 85.7366 353.315 86.6757 355.193 88.8532C357.071 91.0307 357.996 94.365 357.996 98.829C358.075 103.256 357.026 107.63 354.948 111.54C353.117 115.081 350.325 118.034 346.893 120.06C345.709 120.902 344.256 121.28 342.811 121.121C342.297 121.02 341.824 120.771 341.447 120.407C341.071 120.042 340.807 119.577 340.689 119.066C339.556 121.21 338.117 123.177 336.417 124.905C334.696 126.68 332.736 128.205 330.593 129.437C326.892 131.533 323.94 132.159 321.763 131.437C319.586 130.716 318.552 128.511 318.552 124.837C318.583 120.219 320.005 115.718 322.633 111.921C325.495 107.712 329.296 104.227 333.736 101.741C335.59 100.637 337.606 99.8286 339.709 99.3461C341.273 98.9223 342.921 98.9223 344.485 99.3461V113.677C344.485 114.834 344.689 115.541 345.084 115.814C345.478 116.086 346.131 115.95 347.057 115.419C348.78 114.297 350.056 112.607 350.662 110.642C351.582 107.987 352.02 105.19 351.955 102.381C351.955 98.8063 351.175 96.2069 349.614 94.5828C348.781 93.7675 347.764 93.1641 346.649 92.8231C345.534 92.4821 344.353 92.4135 343.206 92.623C339.884 93.1307 336.702 94.3166 333.859 96.1071C327.843 99.4448 322.657 104.097 318.688 109.717C315.019 114.99 313.071 121.27 313.109 127.695C313.109 131.605 313.912 134.459 315.517 136.255C316.35 137.154 317.392 137.834 318.55 138.232C319.709 138.631 320.948 138.738 322.157 138.541C325.543 138.062 328.789 136.87 331.682 135.044C333.678 133.889 335.567 132.559 337.328 131.07C338.967 129.716 340.459 128.192 341.777 126.524C341.914 126.349 342.074 126.193 342.254 126.062C342.376 125.993 342.498 126.062 342.607 126.225L344.104 128.947C344.159 129.055 344.2 129.169 344.226 129.287C344.179 129.59 344.03 129.868 343.805 130.076C342.161 132.053 340.339 133.876 338.362 135.52C336.281 137.267 334.055 138.833 331.709 140.202C327.8 142.671 323.405 144.268 318.824 144.883ZM336.512 119.298C337.807 117.769 338.562 115.855 338.662 113.854V105.552C336.72 105.716 334.849 106.362 333.219 107.43C330.624 108.89 328.413 110.948 326.77 113.432C325.228 115.711 324.399 118.397 324.389 121.149C324.389 123.449 324.96 124.823 326.117 125.231C327.273 125.64 329.056 125.231 331.491 123.775C333.463 122.634 335.188 121.112 336.566 119.298H336.512Z" fill="#E0E0E0"/>
<path d="M146 158.259L133.016 150.61H132.923C128.488 148.065 122.375 148.444 115.61 152.411C102.013 160.384 91 179.783 91 195.73C91 203.703 93.7433 209.267 98.178 211.974L110.257 219L112.441 215.304C114.918 214.74 117.297 213.8 119.499 212.516C133.082 204.529 144.109 185.13 144.109 169.197C144.102 167.043 143.842 164.898 143.337 162.807L146 158.259Z" fill="#F28F8F"/>
<path d="M146 158.259L133.016 150.61H132.923C128.488 148.065 122.375 148.444 115.61 152.411C102.013 160.384 91 179.783 91 195.73C91 203.703 93.7433 209.267 98.178 211.974L110.257 219L112.441 215.304C114.918 214.74 117.297 213.8 119.499 212.516C133.082 204.529 144.109 185.13 144.109 169.197C144.102 167.043 143.842 164.898 143.337 162.807L146 158.259Z" fill="#35B44B"/>
<path opacity="0.4" d="M146 158.259L133.016 150.61H132.923C128.488 148.065 122.375 148.444 115.61 152.411C102.013 160.384 91 179.783 91 195.73C91 203.703 93.7433 209.267 98.178 211.974L110.257 219L112.441 215.304C114.918 214.74 117.297 213.8 119.499 212.516C133.082 204.529 144.109 185.13 144.109 169.197C144.102 167.043 143.842 164.898 143.337 162.807L146 158.259Z" fill="black"/>
<path d="M128.5 159.436C114.964 167.473 104 186.996 104 203.031C104 219.065 114.964 225.591 128.5 217.567C142.036 209.543 153 190.02 153 173.972C153 157.923 142.036 151.411 128.5 159.436Z" fill="#35B44B"/>
<path d="M118.386 206.975C118.133 206.975 118 206.825 118 206.593C118.026 206.337 118.098 206.088 118.213 205.858L119.451 203.012C119.532 202.734 119.695 202.487 119.916 202.304C120.101 202.219 120.3 202.173 120.502 202.168C121.609 202.101 122.702 201.876 123.749 201.501C125.141 201.021 126.479 200.391 127.741 199.622C129.704 198.533 131.426 197.041 132.798 195.238C133.827 193.874 134.4 192.208 134.435 190.486C134.435 187.476 132.638 187.041 129.045 189.124L125.545 191.289C124.973 191.616 124.574 191.738 124.334 191.629C124.095 191.52 123.975 191.194 123.975 190.649V189.519C123.956 189.038 124.081 188.563 124.334 188.157C124.655 187.715 125.069 187.352 125.545 187.095L129.019 185.039C130.41 184.264 131.591 183.146 132.452 181.785C133.174 180.643 133.57 179.318 133.596 177.959C133.596 175.045 131.591 174.773 127.581 177.142C125.115 178.58 122.895 180.419 121.007 182.588C120.83 182.793 120.634 182.98 120.422 183.147C120.344 183.185 120.255 183.195 120.171 183.175C120.086 183.155 120.011 183.107 119.956 183.038L118.772 181.676C118.706 181.613 118.653 181.538 118.616 181.453C118.58 181.369 118.56 181.278 118.559 181.186C118.586 180.873 118.718 180.58 118.932 180.355C120.11 178.847 121.449 177.477 122.924 176.271C124.641 174.839 126.47 173.555 128.393 172.431C130.129 171.325 132.045 170.546 134.049 170.13C134.679 169.972 135.336 169.958 135.973 170.087C136.609 170.217 137.211 170.487 137.735 170.879C138.208 171.345 138.572 171.913 138.802 172.542C139.033 173.171 139.123 173.845 139.066 174.514C139.036 176.013 138.71 177.491 138.108 178.858C137.464 180.435 136.564 181.89 135.446 183.16C136.02 182.963 136.634 182.919 137.23 183.031C137.826 183.142 138.384 183.407 138.853 183.8C139.263 184.289 139.574 184.855 139.768 185.468C139.962 186.08 140.036 186.726 139.984 187.368C139.882 190.386 138.848 193.294 137.03 195.673C134.798 198.736 131.947 201.272 128.673 203.108C123.988 205.912 120.559 207.201 118.386 206.975Z" fill="white"/>
<path d="M355.614 352C351.938 347.714 355.208 340.594 358.776 331.358C362.695 321.2 368.749 303.935 368.749 303.935L411.734 295.025C411.734 295.025 457.53 294.143 461.733 302.931C465.138 309.97 434.977 320.563 430.652 320.942L404.18 322.339L401.396 323.695L382.802 347.307L355.614 352Z" fill="#35B44B"/>
<path d="M434.447 309.643C431.094 313.048 427.969 316.671 425.093 320.487C417.314 331.331 405 351.027 405 351.027C405 351.027 406.914 357.263 412.793 356.991C412.793 356.991 453.251 319.267 456.563 315.783C461.573 310.497 465.592 301.781 456.93 301.062C448.268 300.344 437.814 306.01 434.447 309.643Z" fill="#35B44B"/>
<path d="M425.067 320.759C425.067 320.759 432.403 310.32 440 306C440 306 432.444 307.449 421 321L425.067 320.759Z" fill="#35B44B"/>
<path opacity="0.1" d="M425.067 320.759C425.067 320.759 432.403 310.32 440 306C440 306 432.444 307.449 421 321L425.067 320.759Z" fill="black"/>
<path d="M429.911 334.552L427 335.104L429.702 345C429.702 345 432.32 344.752 433.226 344.807C434.545 344.497 435.814 344.009 437 343.358L436.304 337.312L433.1 334L429.911 334.552Z" fill="#FFA8A7"/>
<path d="M452.384 336.614C453.737 337.168 454.963 338 455.986 339.057C457.008 340.114 457.805 341.375 458.326 342.759C458.93 344.207 459.424 345.699 459.805 347.223C460.252 348.822 460.035 351.536 458.041 351.977C457.393 352.054 456.736 351.935 456.155 351.633C452.153 350.062 448.246 348.243 444.149 346.92C440.639 345.6 436.962 344.788 433.229 344.509C434.077 343.182 434.502 341.621 434.443 340.04C434.385 338.459 433.847 336.935 432.903 335.677C432.1 334.922 431.085 334.44 430 334.299C431.031 333.83 431.994 333.224 432.985 332.659C434.829 331.349 437.088 330.784 439.32 331.074C441.029 331.447 442.332 332.824 443.783 333.83C446.551 335.663 449.223 335.539 452.384 336.614Z" fill="#263238"/>
<path d="M361.024 342.618C364.588 341.518 370.281 340.54 387.168 339.671C404.056 338.802 427.164 335 427.164 335C431.095 338.788 429.794 344.736 429.794 344.736C429.794 344.736 399.8 354.241 390.028 355.504C374.469 357.513 369.102 357.364 362.081 355.857C354.193 354.159 349.219 346.243 361.024 342.618Z" fill="#35B44B"/>
<path d="M422.571 262L435 292.401L426.103 298L409 268.36L422.571 262Z" fill="#F28F8F"/>
<path d="M396 234C402.929 234.082 410.548 236.618 413.174 242.085L424 264.582C424 264.582 417.883 273.608 408.166 272.967L396 234Z" fill="#E0E0E0"/>
<path d="M350.448 281.027C350.529 279.858 352.201 274.151 353.994 268L367 272.512L363.508 283.565L352.549 294C350.176 290.121 349.421 285.46 350.448 281.027Z" fill="#FFA8A7"/>
<path d="M382.753 234.419C374.481 236.404 363.214 238.984 359.946 247.924C356.678 256.865 352 272.653 352 272.653C353.817 275.786 363.783 278.379 367.241 276.569L368.868 271.167V304.013C375.336 311.022 407.241 309.226 412 295.139V250.396C412 243.238 408.014 234.635 396.99 234L382.753 234.419Z" fill="#FAFAFA"/>
<path d="M368 271.126L372 258L368 277V271.126Z" fill="#E0E0E0"/>
<path d="M379.56 197.042C378.778 196.944 377.984 197.018 377.236 197.258C376.488 197.497 375.806 197.897 375.241 198.425C373.384 200.252 373.802 203.628 375.241 211.377L381 212L379.56 197.042Z" fill="#263238"/>
<path d="M410.146 194.948C411.268 194.953 412.379 194.717 413.409 194.256C415.008 193.306 415.428 195.192 414.55 196.82C413.969 197.995 413.108 198.995 412.048 199.727C410.988 200.459 409.764 200.897 408.494 201C408.494 200.769 407 196.78 407 196.78L410.146 194.948Z" fill="#263238"/>
<path d="M382.174 211.847C381.373 212.321 380.219 210.791 379.229 209.749C378.84 209.306 378.344 208.968 377.789 208.769C377.233 208.57 376.636 208.515 376.053 208.61C375.47 208.705 374.922 208.946 374.458 209.311C373.995 209.676 373.633 210.153 373.406 210.696C371.763 214.148 375.496 218.738 377.681 220.254C378.294 220.781 379.059 221.102 379.866 221.17C380.673 221.238 381.481 221.05 382.174 220.633L382.744 233.832C383.712 235.947 385.191 237.79 387.048 239.195C388.905 240.601 391.082 241.526 393.385 241.886C401.149 242.929 399.547 236.539 396.996 233.412V228.579C398.94 228.993 400.938 229.093 402.914 228.877C403.918 228.606 406.334 225.696 407.895 222.433C409.646 218.778 412.564 212.28 409.972 201.275C407.176 189.47 394.458 189.091 386.897 193.87C379.337 198.648 382.174 211.847 382.174 211.847Z" fill="#FFA8A7"/>
<path d="M381.452 213C381.046 213 379.515 210.508 378.512 209.615C377.157 208.375 378.919 197.193 378.919 197.193C378.919 197.193 377.564 192.941 380.274 190.129C382.983 187.316 388.294 187.783 392.169 187.65C396.917 187.675 401.619 186.745 405.988 184.917C411.489 182.572 411.895 182.252 412.573 184.664C413.25 187.077 413.521 192.475 410.242 196.113L408.454 198.979C408.454 198.979 406.788 200.312 401.68 200.978C396.572 201.644 387.82 198.885 386.777 198.739C385.286 198.539 384.975 199.952 384.175 203.817C383.417 207.216 382.807 212.973 381.452 213Z" fill="#263238"/>
<path d="M378.71 198L374 195.468C374.155 195.154 374.371 194.874 374.635 194.645C374.899 194.415 375.206 194.241 375.537 194.132C375.869 194.022 376.22 193.981 376.568 194.008C376.916 194.036 377.255 194.133 377.566 194.294C378.193 194.648 378.661 195.229 378.874 195.919C379.087 196.608 379.028 197.353 378.71 198Z" fill="#263238"/>
<path d="M396 229.053C396 229.053 388.904 227.627 386.427 226.387C384.97 225.626 383.776 224.446 383 223C383.376 224.45 384.041 225.81 384.955 227C386.762 229.307 396 231 396 231V229.053Z" fill="#F28F8F"/>
<path d="M397 211.557C396.989 211.851 396.891 212.135 396.72 212.374C396.548 212.613 396.31 212.797 396.035 212.901C395.76 213.006 395.461 213.028 395.173 212.964C394.886 212.9 394.624 212.753 394.42 212.541C394.216 212.329 394.078 212.062 394.025 211.772C393.972 211.483 394.004 211.184 394.119 210.914C394.234 210.643 394.427 210.412 394.672 210.249C394.917 210.087 395.205 210 395.499 210C395.7 210.004 395.898 210.047 396.082 210.127C396.266 210.207 396.433 210.323 396.572 210.468C396.711 210.612 396.821 210.783 396.894 210.97C396.968 211.156 397.003 211.356 397 211.557Z" fill="#263238"/>
<path d="M395 206.091L392.183 208C391.988 207.523 391.947 206.972 392.069 206.458C392.19 205.945 392.465 205.508 392.838 205.236C393.024 205.111 393.229 205.033 393.44 205.009C393.652 204.984 393.865 205.012 394.067 205.092C394.269 205.172 394.456 205.302 394.616 205.474C394.777 205.645 394.907 205.856 395 206.091Z" fill="#263238"/>
<path d="M396.094 221L399 222.024C398.936 222.205 398.833 222.372 398.698 222.515C398.563 222.658 398.399 222.774 398.215 222.857C398.031 222.94 397.831 222.988 397.627 222.998C397.423 223.008 397.219 222.98 397.027 222.915C396.635 222.77 396.319 222.49 396.145 222.133C395.971 221.776 395.953 221.37 396.094 221Z" fill="#F28F8F"/>
<path d="M409.673 208L407 205.75C407.127 205.555 407.288 205.389 407.475 205.264C407.662 205.138 407.871 205.055 408.088 205.02C408.305 204.984 408.527 204.997 408.739 205.057C408.952 205.117 409.151 205.224 409.325 205.37C409.682 205.676 409.917 206.12 409.982 206.609C410.047 207.099 409.936 207.597 409.673 208Z" fill="#263238"/>
<path d="M409 211.557C408.989 211.851 408.891 212.135 408.72 212.374C408.548 212.613 408.31 212.797 408.035 212.901C407.76 213.006 407.461 213.028 407.173 212.964C406.886 212.9 406.624 212.753 406.42 212.541C406.216 212.329 406.078 212.062 406.025 211.772C405.972 211.483 406.004 211.184 406.119 210.914C406.234 210.643 406.427 210.412 406.672 210.249C406.917 210.087 407.205 210 407.499 210C407.7 210.004 407.898 210.047 408.082 210.127C408.266 210.207 408.433 210.323 408.572 210.468C408.711 210.612 408.821 210.783 408.894 210.97C408.968 211.156 409.003 211.356 409 211.557Z" fill="#263238"/>
<path d="M402.429 211L401 220L406 219.416L402.429 211Z" fill="#F28F8F"/>
<path d="M451 308.011L421.83 291.222C421.575 291.077 421.285 291 420.991 291C420.697 291 420.407 291.077 420.152 291.222L369 320.671L398.995 338L451 308.011Z" fill="#37474F"/>
<path d="M398.778 336L383 326.836L429.14 300L445 309.123L398.778 336Z" fill="#263238"/>
<path d="M391 311.274L391.298 311.44L399.001 316L412.716 307.892L413 307.726L404.999 303L391 311.274Z" fill="#263238"/>
<path d="M392 310.681L399.553 315L413 307.319L405.434 303L392 310.681Z" fill="#263238"/>
<path d="M369 320.765V321.456C368.996 321.946 369.119 322.428 369.357 322.856C369.594 323.284 369.938 323.643 370.355 323.898L397.571 339.62C397.999 339.869 398.486 340 398.981 340C399.476 340 399.962 339.869 400.39 339.62L449.645 311.133C450.061 310.877 450.404 310.518 450.642 310.09C450.879 309.663 451.003 309.181 451 308.692V308L399.035 338.182L369 320.765Z" fill="#263238"/>
<path d="M399 338.128V340C399.478 339.995 399.946 339.864 400.356 339.62L449.644 311.134C450.06 310.877 450.404 310.518 450.642 310.09C450.879 309.663 451.003 309.181 451 308.692V308L399 338.128Z" fill="#263238"/>
<path d="M400 338.779C400.466 338.957 400.966 339.029 401.464 338.989C401.961 338.949 402.444 338.799 402.876 338.549L451.95 310.246C452.376 310.002 452.742 309.666 453.021 309.263C453.3 308.86 453.486 308.399 453.564 307.915L458.99 275.927C459.003 275.742 459.003 275.556 458.99 275.371C458.987 274.481 458.631 273.628 458 273L406.999 302.414C406.685 302.596 406.416 302.844 406.209 303.141C406.003 303.439 405.865 303.778 405.805 304.135L400 338.779Z" fill="#263238"/>
<path d="M399 338.582L399.34 338.771C399.49 338.855 399.645 338.932 399.803 339L405.628 304.509C405.688 304.154 405.826 303.816 406.033 303.52C406.24 303.224 406.511 302.977 406.826 302.796L458 273.513C457.791 273.32 457.563 273.148 457.319 273L406.05 302.284C405.734 302.464 405.462 302.711 405.252 303.007C405.043 303.303 404.902 303.641 404.839 303.997L399 338.582Z" fill="#455A64"/>
<path d="M428.05 308.938C428.849 306.316 430.684 304.085 433.174 302.707C435.631 301.379 437.315 301.977 436.95 304.036C436.151 306.658 434.316 308.889 431.826 310.266C429.369 311.661 427.685 310.984 428.05 308.938Z" fill="#37474F"/>
<path d="M364.016 283.085C364.016 283.085 372.745 316.752 376.431 319.163C380.116 321.573 386.976 323.338 390.257 324.55C393.539 325.762 395.032 327.418 394.467 327.876C393.902 328.334 389.168 328.832 387.527 329.411C385.886 329.99 388.011 332.643 391.643 335.458C395.274 338.273 398.368 338.017 397.964 339.889C397.561 341.76 389.464 343.632 382.631 339.619C375.798 335.606 373.727 330.192 369.652 325.6C365.576 321.008 356.268 301.925 353 293.576C353 293.576 353.309 278.062 358.38 279.045C363.451 280.028 364.016 283.085 364.016 283.085Z" fill="#FFA8A7"/>
<path d="M405 351.59C405.612 353.089 407.726 357.22 412.432 356.991L424 346L405 351.59Z" fill="#35B44B"/>
<path opacity="0.1" d="M405 351.59C405.612 353.089 407.726 357.22 412.432 356.991L424 346L405 351.59Z" fill="black"/>
<path d="M413 358C413.006 358.049 413.006 358.099 413 358.148C413.006 358.099 413.006 358.049 413 358Z" fill="#263238"/>
<path d="M408.978 371.092C408.864 367.551 409.448 364.021 410.695 360.705C410.129 361.1 409.475 361.353 408.79 361.443C408.105 361.532 407.408 361.455 406.759 361.219C402.824 360.042 401.836 354.551 402.458 353.361C401.89 353.861 401.295 354.334 400.714 354.821C398.848 356.073 397.521 357.98 396.994 360.164C396.724 361.881 397.522 363.572 397.914 365.276C398.671 368.522 397.914 371.904 397.792 375.231C397.82 376.683 398.145 378.114 398.747 379.435C399.35 380.756 400.217 381.94 401.295 382.913C402.404 383.995 403.598 384.985 404.866 385.875C405.327 386.394 405.938 386.756 406.614 386.913C407.291 387.07 407.999 387.013 408.641 386.751C409.284 386.488 409.829 386.032 410.202 385.447C410.574 384.861 410.756 384.174 410.722 383.481C410.208 379.261 409.221 375.488 408.978 371.092Z" fill="#263238"/>
<path d="M413.441 356.431C413.075 357.121 412.751 357.783 412.467 358.446C412.805 357.797 413.13 357.121 413.441 356.431Z" fill="#37474F"/>
<path d="M402.43 353.36L402.686 353.131L402.43 353.36Z" fill="#37474F"/>
</svg>
