<svg width="1014" height="611" viewBox="0 0 1014 611" fill="none" xmlns="http://www.w3.org/2000/svg">
<g clip-path="url(#clip0)">
<path d="M673.371 608.992H288.537C275.917 608.992 263.814 603.978 254.891 595.055C245.967 586.131 240.954 574.028 240.954 561.408V385.097C240.954 382.536 241.476 380.003 242.487 377.651C243.498 375.298 244.978 373.177 246.836 371.416L450.76 178.113C458.913 170.384 469.72 166.076 480.954 166.076C492.188 166.076 502.995 170.384 511.148 178.113L705.579 362.417C710.436 367.021 714.304 372.566 716.947 378.714C719.591 384.863 720.954 391.485 720.954 398.177V561.408C720.954 567.657 719.723 573.845 717.332 579.618C714.941 585.391 711.436 590.636 707.017 595.055C702.599 599.473 697.353 602.978 691.58 605.37C685.807 607.761 679.62 608.992 673.371 608.992Z" fill="#49526A" fill-opacity="0.8"/>
<path opacity="0.1" d="M240.954 387.992H716.954V580.259C716.954 587.88 713.927 595.188 708.539 600.576C703.15 605.964 695.842 608.992 688.222 608.992H269.686C262.066 608.992 254.758 605.964 249.37 600.576C243.981 595.188 240.954 587.88 240.954 580.259V387.992V387.992Z" fill="black"/>
<path d="M631.273 236.492H329.635C315.176 236.492 303.454 248.213 303.454 262.673V564.31C303.454 578.77 315.176 590.492 329.635 590.492H631.273C645.732 590.492 657.454 578.77 657.454 564.31V262.673C657.454 248.213 645.732 236.492 631.273 236.492Z" fill="#E1EBFD"/>
<path opacity="0.1" d="M657.454 395.942V590.492H303.454V395.942L480.454 481.492L657.454 395.942Z" fill="black"/>
<path d="M480.454 492.492L253.66 382.875C252.258 382.197 250.706 381.886 249.15 381.972C247.594 382.057 246.086 382.537 244.766 383.365C243.446 384.193 242.358 385.342 241.604 386.705C240.85 388.069 240.454 389.601 240.454 391.159V579.759C240.454 583.532 241.197 587.269 242.641 590.755C244.085 594.241 246.202 597.408 248.87 600.076C251.538 602.744 254.705 604.861 258.191 606.304C261.677 607.748 265.413 608.492 269.186 608.492H691.722C695.495 608.492 699.231 607.748 702.717 606.304C706.203 604.861 709.371 602.744 712.039 600.076C714.707 597.408 716.823 594.241 718.267 590.755C719.711 587.269 720.454 583.532 720.454 579.759V394.39C720.454 392.489 719.971 390.619 719.051 388.955C718.131 387.292 716.803 385.889 715.193 384.878C713.582 383.868 711.741 383.283 709.843 383.179C707.945 383.074 706.051 383.453 704.339 384.281L480.454 492.492Z" fill="#49526A"/>
<path d="M432.954 268.992H333.954V282.992H432.954V268.992Z" fill="#F2F2F2"/>
<path d="M619.954 319.992H325.954V327.992H619.954V319.992Z" fill="#F2F2F2"/>
<path d="M619.954 346.992H325.954V354.992H619.954V346.992Z" fill="#F2F2F2"/>
<path d="M619.954 373.992H325.954V381.992H619.954V373.992Z" fill="#F2F2F2"/>
<path d="M719.713 162.771C719.112 168.125 715.028 172.438 713.514 177.61C711.237 185.393 715.175 193.746 720.563 199.807C724.909 204.647 730.174 208.576 736.05 211.366C741.927 214.156 748.298 215.752 754.796 216.062C756.705 216.23 758.628 216.02 760.456 215.445C762.088 214.788 763.558 213.784 764.763 212.502C768.82 208.428 770.998 202.784 771.866 197.1C772.734 191.416 772.396 185.626 772.057 179.886C772.059 178.7 771.843 177.523 771.421 176.414C770.868 175.358 770.108 174.424 769.186 173.667C766.265 170.987 763.048 168.65 759.596 166.701C758.036 166.002 756.66 164.949 755.578 163.626C754.926 162.492 754.504 161.241 754.336 159.944L753.276 154.545C753.087 152.99 752.556 151.495 751.721 150.169C749.849 147.644 746.269 147.301 743.128 147.178L731.623 146.726C728.044 146.586 723.329 145.56 719.835 146.262C716.573 146.919 717.657 149.925 718.249 152.662C719.109 155.967 719.599 159.357 719.713 162.771V162.771Z" fill="#A0616A"/>
<path opacity="0.9" d="M719.713 162.771C719.112 168.125 715.028 172.438 713.514 177.61C711.237 185.393 715.175 193.746 720.563 199.807C724.909 204.647 730.174 208.576 736.05 211.366C741.927 214.156 748.298 215.752 754.796 216.062C756.705 216.23 758.628 216.02 760.456 215.445C762.088 214.788 763.558 213.784 764.763 212.502C768.82 208.428 770.998 202.784 771.866 197.1C772.734 191.416 772.396 185.626 772.057 179.886C772.059 178.7 771.843 177.523 771.421 176.414C770.868 175.358 770.108 174.424 769.186 173.667C766.265 170.987 763.048 168.65 759.596 166.701C758.036 166.002 756.66 164.949 755.578 163.626C754.926 162.492 754.504 161.241 754.336 159.944L753.276 154.545C753.087 152.99 752.556 151.495 751.721 150.169C749.849 147.644 746.269 147.301 743.128 147.178L731.623 146.726C728.044 146.586 723.329 145.56 719.835 146.262C716.573 146.919 717.657 149.925 718.249 152.662C719.109 155.967 719.599 159.357 719.713 162.771V162.771Z" fill="#E2BD96"/>
<path d="M792.901 403.781C791.271 421.654 789.641 439.523 788.011 457.39C786.735 471.45 785.434 485.569 782.932 499.448C782.067 504.231 781.055 508.989 779.853 513.706C776.51 526.804 771.662 539.605 770.097 553.032C770.048 553.419 770.007 553.814 769.966 554.209C769.791 557.178 769.229 560.112 768.295 562.935C767.513 564.985 766.311 566.854 765.463 568.879C763.775 572.929 763.553 577.408 763.347 581.795C757.411 578.457 750.912 576.236 744.174 575.242C740.922 574.757 737.3 574.411 735.086 571.982C732.633 569.299 732.904 565.191 733.316 561.585C734.608 550.389 735.898 539.199 737.185 528.014C737.605 523.202 738.423 518.433 739.63 513.756C740.074 512.2 740.61 510.669 741.153 509.138C741.902 507.03 742.659 504.923 743.227 502.758C744.046 499.259 744.618 495.708 744.94 492.13C746.265 480.868 747.862 469.631 749.262 458.378L749.336 457.785C751.435 440.728 753.032 423.588 752.571 406.407C752.505 403.864 752.398 401.32 752.233 398.768C752.003 395.072 751.665 393.112 754.728 390.799C758.111 388.247 762.565 386.461 766.434 384.79C768.517 383.884 791.452 375.742 791.987 377.529C793.063 381.339 793.628 385.276 793.666 389.235C793.683 394.094 793.427 398.951 792.901 403.781Z" fill="#3356BE"/>
<path opacity="0.1" d="M782.932 499.448C782.068 504.231 781.055 508.989 779.853 513.706C776.511 526.804 771.662 539.605 770.098 553.032C770.048 553.419 770.007 553.814 769.966 554.209C759.742 539.605 751.131 523.898 741.153 509.138C741.902 507.03 742.66 504.923 743.228 502.758C744.046 499.259 744.619 495.708 744.94 492.13C746.265 480.868 747.863 469.631 749.262 458.378L749.336 457.785C749.922 460.174 750.758 462.495 751.831 464.708C758.532 478.324 774.453 485.206 782.24 498.238C782.479 498.641 782.71 499.045 782.932 499.448Z" fill="black"/>
<path d="M699.967 379.719C700.305 390.64 702.053 401.462 703.797 412.248L707.397 434.501C709.367 446.681 711.418 459.109 717.182 470.017C721.493 478.178 727.705 485.141 733.325 492.462C747.14 510.461 757.519 530.849 770.619 549.375C774.426 554.76 779.869 560.583 786.368 559.459C790.633 558.721 793.73 555.17 797.083 552.432C801.035 549.204 805.799 546.842 808.909 542.796C812.019 538.75 812.628 532.025 808.415 529.146C806.89 528.302 805.272 527.639 803.593 527.173C797.061 524.689 792.834 518.311 790.144 511.861C787.454 505.412 785.824 498.477 782.24 492.479C774.453 479.447 758.529 472.565 751.826 458.944C748.072 451.315 747.715 442.522 747.428 434.024L746.696 412.362C746.616 409.994 746.554 407.53 747.517 405.364C750.08 399.598 757.822 399.061 764.09 398.33C771.204 397.496 778.095 395.322 784.4 391.922C788.01 389.972 791.537 387.487 793.468 383.867C795.23 380.564 795.474 376.691 795.68 372.953L797.851 333.695C798.037 330.318 798.207 326.826 797.017 323.659C794.028 315.709 783.989 313.111 775.503 313.49C759.713 314.196 745.137 320.988 730.249 325.575C726.561 326.739 722.817 327.715 719.031 328.501C715.69 329.172 711.646 328.893 708.459 329.968C702.792 331.878 702.936 344.272 702.132 349.413C700.473 359.426 699.748 369.572 699.967 379.719V379.719Z" fill="#3356BE"/>
<path d="M784.224 561.105C785.616 562.509 786.071 564.566 786.434 566.51C788.445 577.293 789.491 588.234 789.56 599.202C789.467 600.226 789.671 601.254 790.149 602.164C790.541 602.707 791.072 603.134 791.686 603.4C795.711 605.318 800.382 602.645 803.735 599.708C809.951 594.262 815.211 586.953 815.564 578.697C815.5 576.57 815.574 574.442 815.787 572.325C816.333 569.216 818.148 566.508 819.748 563.787C822.47 559.156 824.665 554.235 826.293 549.116C826.904 547.192 827.311 544.77 825.804 543.428C825.269 543.009 824.662 542.694 824.012 542.497L805.834 535.747C804.258 535.162 800.339 545.231 799.716 546.332C798.195 549.025 796.681 550.554 793.628 551.175C790.511 551.81 786.801 550.899 783.893 552.454C778.974 555.084 781.439 558.296 784.224 561.105Z" fill="#535070"/>
<path d="M756.174 567.318C755.836 566.646 755.365 566.049 754.79 565.564C753.949 565.03 752.992 564.705 751.999 564.616C748.539 564.028 744.437 563.641 742.048 566.214C739.809 568.625 740.194 572.554 738.321 575.261C737.729 576.118 736.926 576.824 736.412 577.73C735.774 579.115 735.486 580.636 735.574 582.159C735.477 586.354 735.381 590.557 735.671 594.743C735.914 598.251 736.505 601.927 738.699 604.675C742.22 609.086 748.57 609.721 754.207 610.007L758.772 610.239C760.03 610.392 761.305 610.275 762.514 609.896C763.262 609.55 763.933 609.057 764.487 608.448C765.041 607.838 765.468 607.123 765.741 606.345C768.117 600.439 764.354 594.075 762.035 588.145C759.371 581.33 759.849 573.762 756.174 567.318Z" fill="#535070"/>
<path d="M718.39 132.6C718.334 132.001 718.422 131.398 718.647 130.84C719.315 129.658 721.061 129.979 722.378 130.311C727.675 131.647 733.256 130.438 738.71 130.75C744.163 131.062 750.307 133.788 751.403 139.14C755.361 136.333 758.774 132.827 761.472 128.794C762.985 126.529 764.304 123.935 764.098 121.218C763.801 117.3 760.514 114.37 757.47 111.886L748.397 104.479C747.206 103.384 745.831 102.51 744.334 101.896C742.239 101.18 739.954 101.521 737.74 101.522C731.136 101.527 724.094 98.5208 718.22 101.54C715.766 102.802 713.919 104.963 712.139 107.071L704.041 116.656C703.431 117.267 702.986 118.023 702.746 118.852C702.516 120.022 703.117 121.176 703.326 122.35C703.709 124.492 702.786 126.777 703.496 128.834C704.673 132.248 708.818 132.731 711.352 134.689C712.297 135.418 713.777 137.89 714.903 137.86C716.933 137.806 718.337 134.178 718.39 132.6Z" fill="#3F3D56"/>
<path d="M732.131 160.856C746.452 160.856 758.062 149.246 758.062 134.925C758.062 120.603 746.452 108.993 732.131 108.993C717.809 108.993 706.199 120.603 706.199 134.925C706.199 149.246 717.809 160.856 732.131 160.856Z" fill="#E2BD96"/>
<path d="M738.205 191.676C737.325 189.156 735.665 186.982 733.466 185.469C731.267 183.956 728.644 183.182 725.976 183.261C725.212 183.403 724.424 183.303 723.72 182.975C723.322 182.67 723.004 182.272 722.793 181.816C721.216 178.981 719.948 175.984 719.012 172.878C718.598 171.505 718.032 169.887 716.644 169.53C716.069 169.455 715.484 169.537 714.953 169.769C714.421 170 713.962 170.371 713.625 170.843C712.966 171.793 712.245 172.699 711.468 173.555C708.207 176.471 702.425 173.813 698.964 176.488C698.398 176.925 697.932 177.485 697.338 177.883C696.743 178.24 696.103 178.515 695.434 178.699C688.749 180.881 682.196 183.448 675.808 186.386C678.11 200.253 680.47 214.361 685.867 227.34C688.435 233.517 691.346 239.566 693.403 245.932C697.96 260.035 698.162 275.126 698.213 289.947C698.248 300.091 698.198 310.452 694.916 320.05C694.033 322.172 693.411 324.392 693.063 326.663C692.864 328.95 693.53 331.472 695.383 332.827C696.458 333.53 697.687 333.962 698.965 334.085C704.651 334.92 710.384 333.406 715.984 332.11C730.992 328.634 746.299 326.645 761.576 324.661L787.176 321.337C789.011 321.213 790.807 320.749 792.472 319.968C797.157 317.404 797.601 310.357 794.692 305.878C793.298 303.731 791.33 301.969 790.158 299.693C788.986 297.417 788.887 294.233 790.904 292.656C795.007 289.449 793.783 283.499 793.979 278.294C794.526 263.742 794.452 249.183 793.757 234.62C793.551 231.605 793.503 228.581 793.612 225.562C794.067 220.444 795.013 215.383 796.436 210.447L804.214 179.819C802.182 176.608 798.292 174.57 794.606 173.645C790.92 172.72 787.081 172.448 783.451 171.323C776.015 169.019 769.395 163.171 761.629 163.716C761.041 163.727 760.464 163.868 759.937 164.129C758.186 165.122 758.463 167.646 758.351 169.656C758.103 174.102 754.833 177.819 751.221 180.425C747.609 183.031 743.484 184.931 740.167 187.902C739.579 188.345 739.097 188.914 738.758 189.567C738.419 190.22 738.23 190.941 738.205 191.676V191.676Z" fill="#49526A"/>
<path d="M635.455 220.728C633.735 221.844 631.908 222.784 630 223.535C628.132 224.09 626.368 224.947 624.775 226.07C624.041 226.705 623.426 227.465 622.958 228.315C622.08 229.872 621.637 231.635 621.673 233.422C621.709 235.209 622.225 236.953 623.165 238.473C624.106 239.992 625.437 241.232 627.02 242.061C628.603 242.891 630.379 243.28 632.164 243.189C634.536 242.923 636.841 242.236 638.971 241.159L657.261 233.234C660.357 231.892 663.701 230.32 665.164 227.28C665.335 226.997 665.398 226.661 665.342 226.335C665.195 225.99 664.928 225.71 664.591 225.545C660.466 222.866 656.858 219.464 653.941 215.503C653.191 214.484 652.272 212.079 651.212 211.468C647.34 209.238 638.553 218.717 635.455 220.728Z" fill="#E2BD96"/>
<path d="M830.982 214.224L837.725 221.927C839.173 223.581 840.622 225.237 841.941 226.994C845.182 231.46 847.781 236.357 849.664 241.544C851.13 245.39 852.347 249.487 851.835 253.571C851.494 255.664 850.929 257.715 850.148 259.687C848.912 263.48 847.38 267.17 845.566 270.723C844.04 273.422 842.317 276.005 840.41 278.45C835.189 285.369 829.476 291.904 823.316 298.002C821.011 300.284 820.044 303.974 819.041 307.059C817.19 312.748 812.785 317.18 808.526 321.382C807.158 322.827 805.645 324.129 804.012 325.267C801.565 326.843 798.705 327.657 795.796 327.607C794.522 327.616 793.26 327.355 792.095 326.841C789.18 325.457 787.699 322.087 787.395 318.874C787.124 315.959 787.612 313.024 788.813 310.354C792.683 301.782 802.619 298.068 809.643 291.813C813.761 288.146 816.911 283.54 820.017 278.983C822.127 276.138 823.888 273.05 825.264 269.786C826.832 265.601 826.222 260.646 827.592 256.392C828.171 254.594 829.201 252.97 829.824 251.186C830.447 249.403 830.604 247.285 829.514 245.742C828.692 244.761 827.644 243.994 826.461 243.507C821.974 241.229 816.949 238.299 816.09 233.341C815.748 230.591 816.466 227.815 818.099 225.576C819.726 223.368 821.627 221.375 823.757 219.647C825.72 217.911 829.02 215.96 830.982 214.224Z" fill="#E2BD96"/>
<path d="M631.126 231.481C629.936 229.075 628.447 226.621 626.044 225.426C624.88 224.92 623.624 224.656 622.354 224.651C621.084 224.646 619.827 224.899 618.658 225.395C616.328 226.399 614.147 227.718 612.175 229.315L606.363 233.599C605.045 234.463 603.879 235.54 602.912 236.784C601.995 238.294 601.384 239.969 601.115 241.715C600.102 245.696 599.793 249.824 600.201 253.912C601.123 260.466 605.075 266.188 609.425 271.177C612.142 274.295 615.498 277.441 619.632 277.574C621.416 277.632 623.401 276.928 624.143 275.305C624.4 274.661 624.537 273.975 624.546 273.282C624.992 265.971 622.377 258.83 619.327 252.171C618.355 250.428 617.781 248.49 617.645 246.498C617.623 246.163 617.71 245.83 617.893 245.548C618.156 245.275 618.508 245.103 618.886 245.064C623.06 244.238 630.249 247.481 633.178 242.846C635.076 239.841 632.475 234.206 631.126 231.481Z" fill="#E2BD96"/>
<path d="M717.031 124.44C716.975 123.841 717.063 123.238 717.287 122.68C717.956 121.498 719.702 121.82 721.019 122.152C726.316 123.487 731.897 122.278 737.35 122.59C742.804 122.902 748.947 125.629 750.044 130.98C754.002 128.174 757.414 124.668 760.112 120.635C761.626 118.37 762.945 115.775 762.739 113.059C762.442 109.141 759.155 106.211 756.111 103.726L747.038 96.3189C745.847 95.2245 744.471 94.35 742.975 93.7361C740.88 93.0201 738.595 93.3612 736.381 93.3626C729.776 93.3669 722.734 90.3611 716.86 93.3806C714.406 94.6419 712.56 96.8033 710.779 98.9109L702.681 108.497C702.072 109.108 701.626 109.863 701.387 110.692C701.156 111.862 701.757 113.017 701.967 114.191C702.349 116.332 701.427 118.618 702.136 120.674C703.313 124.088 707.459 124.572 709.993 126.529C710.938 127.258 712.418 129.731 713.543 129.701C715.574 129.646 716.978 126.018 717.031 124.44Z" fill="#3F3D56"/>
<path d="M661.954 195.505C660.907 196.18 659.988 197.036 659.24 198.032C658.289 199.469 658.096 201.284 657.279 202.801C655.532 206.049 651.444 207.204 648.894 209.869C648.489 210.235 648.207 210.718 648.088 211.251C648.076 211.974 648.319 212.678 648.773 213.241L661.07 232.572C665.164 232.933 669.092 230.368 673.188 230.708C674.717 230.835 676.282 231.363 677.749 230.912C678.799 230.446 679.783 229.844 680.676 229.122C683.119 227.576 686.374 227.396 688.424 225.358C690.392 223.402 690.643 220.341 690.619 217.566C690.652 215.157 690.407 212.751 689.888 210.398C688.078 202.978 682.403 197.284 678.845 190.711C677.113 187.511 676.171 185.638 672.505 187.835C668.82 190.043 665.422 192.969 661.954 195.505Z" fill="#49526A"/>
<path d="M811.296 185.729C813.607 187.229 815.69 189.054 817.482 191.147C819.355 193.563 820.416 196.519 822.216 198.99C823.96 201.385 826.334 203.24 828.313 205.445C831.313 208.79 833.345 212.871 835.341 216.896C830.466 223.254 825.151 229.261 819.435 234.874C818.799 235.623 817.96 236.174 817.02 236.461C816.38 236.529 815.733 236.438 815.137 236.195C814.542 235.952 814.015 235.565 813.605 235.069C812.72 234.14 812.092 232.995 811.245 232.03C809.247 229.969 806.584 228.681 803.727 228.394C800.896 228.12 798.047 228.081 795.21 228.277C794.587 228.346 793.957 228.24 793.39 227.971C792.97 227.68 792.628 227.289 792.398 226.832C789.069 221.167 790.139 214.054 791.314 207.589L794.009 192.754C794.4 189.92 795.154 187.149 796.252 184.508C797.273 182.327 799.556 178.627 802.363 179.28C805.193 179.939 808.915 184.017 811.296 185.729Z" fill="#49526A"/>
<path d="M673.371 608.992H288.537C275.917 608.992 263.814 603.978 254.891 595.055C245.967 586.131 240.954 574.028 240.954 561.408V385.097C240.954 382.536 241.476 380.003 242.487 377.651C243.498 375.298 244.978 373.177 246.836 371.416L450.76 178.113C458.913 170.384 469.72 166.076 480.954 166.076C492.188 166.076 502.995 170.384 511.148 178.113L705.579 362.417C710.436 367.021 714.304 372.566 716.947 378.714C719.591 384.863 720.954 391.485 720.954 398.177V561.408C720.954 567.657 719.723 573.845 717.332 579.618C714.941 585.391 711.436 590.636 707.017 595.055C702.599 599.473 697.353 602.978 691.58 605.37C685.807 607.761 679.62 608.992 673.371 608.992Z" fill="#49526A" fill-opacity="0.8"/>
<path opacity="0.1" d="M240.954 387.992H716.954V580.259C716.954 587.88 713.927 595.188 708.539 600.576C703.15 605.964 695.842 608.992 688.222 608.992H269.686C262.066 608.992 254.758 605.964 249.37 600.576C243.981 595.188 240.954 587.88 240.954 580.259V387.992V387.992Z" fill="black"/>
<path d="M631.273 236.492H329.635C315.176 236.492 303.454 248.213 303.454 262.673V564.31C303.454 578.77 315.176 590.492 329.635 590.492H631.273C645.732 590.492 657.454 578.77 657.454 564.31V262.673C657.454 248.213 645.732 236.492 631.273 236.492Z" fill="#E1EBFD"/>
<path opacity="0.1" d="M657.454 395.942V590.492H303.454V395.942L480.454 481.492L657.454 395.942Z" fill="black"/>
<path d="M480.454 492.492L253.66 382.875C252.258 382.197 250.706 381.886 249.15 381.972C247.594 382.057 246.086 382.537 244.766 383.365C243.446 384.193 242.358 385.342 241.604 386.705C240.85 388.069 240.454 389.601 240.454 391.159V579.759C240.454 583.532 241.197 587.269 242.641 590.755C244.085 594.241 246.202 597.408 248.87 600.076C251.538 602.744 254.705 604.861 258.191 606.304C261.677 607.748 265.413 608.492 269.186 608.492H691.722C695.495 608.492 699.231 607.748 702.717 606.304C706.203 604.861 709.371 602.744 712.039 600.076C714.707 597.408 716.823 594.241 718.267 590.755C719.711 587.269 720.454 583.532 720.454 579.759V394.39C720.454 392.489 719.971 390.619 719.051 388.955C718.131 387.292 716.803 385.889 715.193 384.878C713.582 383.868 711.741 383.283 709.843 383.179C707.945 383.074 706.051 383.453 704.339 384.281L480.454 492.492Z" fill="#49526A"/>
<path d="M432.954 268.992H333.954V282.992H432.954V268.992Z" fill="#F2F2F2"/>
<path d="M619.954 319.992H325.954V327.992H619.954V319.992Z" fill="#F2F2F2"/>
<path d="M619.954 346.992H325.954V354.992H619.954V346.992Z" fill="#F2F2F2"/>
<path d="M619.954 373.992H325.954V381.992H619.954V373.992Z" fill="#F2F2F2"/>
<path d="M719.713 162.771C719.112 168.125 715.028 172.438 713.514 177.61C711.237 185.393 715.175 193.746 720.563 199.807C724.909 204.647 730.174 208.576 736.05 211.366C741.927 214.156 748.298 215.752 754.796 216.062C756.705 216.23 758.628 216.02 760.456 215.445C762.088 214.788 763.558 213.784 764.763 212.502C768.82 208.428 770.998 202.784 771.866 197.1C772.734 191.416 772.396 185.626 772.057 179.886C772.059 178.7 771.843 177.523 771.421 176.414C770.868 175.358 770.108 174.424 769.186 173.667C766.265 170.987 763.048 168.65 759.596 166.701C758.036 166.002 756.66 164.949 755.578 163.626C754.926 162.492 754.504 161.241 754.336 159.944L753.276 154.545C753.087 152.99 752.556 151.495 751.721 150.169C749.849 147.644 746.269 147.301 743.128 147.178L731.623 146.726C728.044 146.586 723.329 145.56 719.835 146.262C716.573 146.919 717.657 149.925 718.249 152.662C719.109 155.967 719.599 159.357 719.713 162.771V162.771Z" fill="#A0616A"/>
<path opacity="0.9" d="M719.713 162.771C719.112 168.125 715.028 172.438 713.514 177.61C711.237 185.393 715.175 193.746 720.563 199.807C724.909 204.647 730.174 208.576 736.05 211.366C741.927 214.156 748.298 215.752 754.796 216.062C756.705 216.23 758.628 216.02 760.456 215.445C762.088 214.788 763.558 213.784 764.763 212.502C768.82 208.428 770.998 202.784 771.866 197.1C772.734 191.416 772.396 185.626 772.057 179.886C772.059 178.7 771.843 177.523 771.421 176.414C770.868 175.358 770.108 174.424 769.186 173.667C766.265 170.987 763.048 168.65 759.596 166.701C758.036 166.002 756.66 164.949 755.578 163.626C754.926 162.492 754.504 161.241 754.336 159.944L753.276 154.545C753.087 152.99 752.556 151.495 751.721 150.169C749.849 147.644 746.269 147.301 743.128 147.178L731.623 146.726C728.044 146.586 723.329 145.56 719.835 146.262C716.573 146.919 717.657 149.925 718.249 152.662C719.109 155.967 719.599 159.357 719.713 162.771V162.771Z" fill="#E2BD96"/>
<path d="M792.901 403.781C791.271 421.654 789.641 439.523 788.011 457.39C786.735 471.45 785.434 485.569 782.932 499.448C782.067 504.231 781.055 508.989 779.853 513.706C776.51 526.804 771.662 539.605 770.097 553.032C770.048 553.419 770.007 553.814 769.966 554.209C769.791 557.178 769.229 560.112 768.295 562.935C767.513 564.985 766.311 566.854 765.463 568.879C763.775 572.929 763.553 577.408 763.347 581.795C757.411 578.457 750.912 576.236 744.174 575.242C740.922 574.757 737.3 574.411 735.086 571.982C732.633 569.299 732.904 565.191 733.316 561.585C734.608 550.389 735.898 539.199 737.185 528.014C737.605 523.202 738.423 518.433 739.63 513.756C740.074 512.2 740.61 510.669 741.153 509.138C741.902 507.03 742.659 504.923 743.227 502.758C744.046 499.259 744.618 495.708 744.94 492.13C746.265 480.868 747.862 469.631 749.262 458.378L749.336 457.785C751.435 440.728 753.032 423.588 752.571 406.407C752.505 403.864 752.398 401.32 752.233 398.768C752.003 395.072 751.665 393.112 754.728 390.799C758.111 388.247 762.565 386.461 766.434 384.79C768.517 383.884 791.452 375.742 791.987 377.529C793.063 381.339 793.628 385.276 793.666 389.235C793.683 394.094 793.427 398.951 792.901 403.781Z" fill="#3356BE"/>
<path opacity="0.1" d="M782.932 499.448C782.068 504.231 781.055 508.989 779.853 513.706C776.511 526.804 771.662 539.605 770.098 553.032C770.048 553.419 770.007 553.814 769.966 554.209C759.742 539.605 751.131 523.898 741.153 509.138C741.902 507.03 742.66 504.923 743.228 502.758C744.046 499.259 744.619 495.708 744.94 492.13C746.265 480.868 747.863 469.631 749.262 458.378L749.336 457.785C749.922 460.174 750.758 462.495 751.831 464.708C758.532 478.324 774.453 485.206 782.24 498.238C782.479 498.641 782.71 499.045 782.932 499.448Z" fill="black"/>
<path d="M699.967 379.719C700.305 390.64 702.053 401.462 703.797 412.248L707.397 434.501C709.367 446.681 711.418 459.109 717.182 470.017C721.493 478.178 727.705 485.141 733.325 492.462C747.14 510.461 757.519 530.849 770.619 549.375C774.426 554.76 779.869 560.583 786.368 559.459C790.633 558.721 793.73 555.17 797.083 552.432C801.035 549.204 805.799 546.842 808.909 542.796C812.019 538.75 812.628 532.025 808.415 529.146C806.89 528.302 805.272 527.639 803.593 527.173C797.061 524.689 792.834 518.311 790.144 511.861C787.454 505.412 785.824 498.477 782.24 492.479C774.453 479.447 758.529 472.565 751.826 458.944C748.072 451.315 747.715 442.522 747.428 434.024L746.696 412.362C746.616 409.994 746.554 407.53 747.517 405.364C750.08 399.598 757.822 399.061 764.09 398.33C771.204 397.496 778.095 395.322 784.4 391.922C788.01 389.972 791.537 387.487 793.468 383.867C795.23 380.564 795.474 376.691 795.68 372.953L797.851 333.695C798.037 330.318 798.207 326.826 797.017 323.659C794.028 315.709 783.989 313.111 775.503 313.49C759.713 314.196 745.137 320.988 730.249 325.575C726.561 326.739 722.817 327.715 719.031 328.501C715.69 329.172 711.646 328.893 708.459 329.968C702.792 331.878 702.936 344.272 702.132 349.413C700.473 359.426 699.748 369.572 699.967 379.719V379.719Z" fill="#3356BE"/>
<path d="M784.224 561.105C785.616 562.509 786.071 564.566 786.434 566.51C788.445 577.293 789.491 588.234 789.56 599.202C789.467 600.226 789.671 601.254 790.149 602.164C790.541 602.707 791.072 603.134 791.686 603.4C795.711 605.318 800.382 602.645 803.735 599.708C809.951 594.262 815.211 586.953 815.564 578.697C815.5 576.57 815.574 574.442 815.787 572.325C816.333 569.216 818.148 566.508 819.748 563.787C822.47 559.156 824.665 554.235 826.293 549.116C826.904 547.192 827.311 544.77 825.804 543.428C825.269 543.009 824.662 542.694 824.012 542.497L805.834 535.747C804.258 535.162 800.339 545.231 799.716 546.332C798.195 549.025 796.681 550.554 793.628 551.175C790.511 551.81 786.801 550.899 783.893 552.454C778.974 555.084 781.439 558.296 784.224 561.105Z" fill="#535070"/>
<path d="M756.174 567.318C755.836 566.646 755.365 566.049 754.79 565.564C753.949 565.03 752.992 564.705 751.999 564.616C748.539 564.028 744.437 563.641 742.048 566.214C739.809 568.625 740.194 572.554 738.321 575.261C737.729 576.118 736.926 576.824 736.412 577.73C735.774 579.115 735.486 580.636 735.574 582.159C735.477 586.354 735.381 590.557 735.671 594.743C735.914 598.251 736.505 601.927 738.699 604.675C742.22 609.086 748.57 609.721 754.207 610.007L758.772 610.239C760.03 610.392 761.305 610.275 762.514 609.896C763.262 609.55 763.933 609.057 764.487 608.448C765.041 607.838 765.468 607.123 765.741 606.345C768.117 600.439 764.354 594.075 762.035 588.145C759.371 581.33 759.849 573.762 756.174 567.318Z" fill="#535070"/>
<path d="M718.39 132.6C718.334 132.001 718.422 131.398 718.647 130.84C719.315 129.658 721.061 129.979 722.378 130.311C727.675 131.647 733.256 130.438 738.71 130.75C744.163 131.062 750.307 133.788 751.403 139.14C755.361 136.333 758.774 132.827 761.472 128.794C762.985 126.529 764.304 123.935 764.098 121.218C763.801 117.3 760.514 114.37 757.47 111.886L748.397 104.479C747.206 103.384 745.831 102.51 744.334 101.896C742.239 101.18 739.954 101.521 737.74 101.522C731.136 101.527 724.094 98.5208 718.22 101.54C715.766 102.802 713.919 104.963 712.139 107.071L704.041 116.656C703.431 117.267 702.986 118.023 702.746 118.852C702.516 120.022 703.117 121.176 703.326 122.35C703.709 124.492 702.786 126.777 703.496 128.834C704.673 132.248 708.818 132.731 711.352 134.689C712.297 135.418 713.777 137.89 714.903 137.86C716.933 137.806 718.337 134.178 718.39 132.6Z" fill="#3F3D56"/>
<path d="M732.131 160.856C746.452 160.856 758.062 149.246 758.062 134.925C758.062 120.603 746.452 108.993 732.131 108.993C717.809 108.993 706.199 120.603 706.199 134.925C706.199 149.246 717.809 160.856 732.131 160.856Z" fill="#E2BD96"/>
<path d="M738.205 191.676C737.325 189.156 735.665 186.982 733.466 185.469C731.267 183.956 728.644 183.182 725.976 183.261C725.212 183.403 724.424 183.303 723.72 182.975C723.322 182.67 723.004 182.272 722.793 181.816C721.216 178.981 719.948 175.984 719.012 172.878C718.598 171.505 718.032 169.887 716.644 169.53C716.069 169.455 715.484 169.537 714.953 169.769C714.421 170 713.962 170.371 713.625 170.843C712.966 171.793 712.245 172.699 711.468 173.555C708.207 176.471 702.425 173.813 698.964 176.488C698.398 176.925 697.932 177.485 697.338 177.883C696.743 178.24 696.103 178.515 695.434 178.699C688.749 180.881 682.196 183.448 675.808 186.386C678.11 200.253 680.47 214.361 685.867 227.34C688.435 233.517 691.346 239.566 693.403 245.932C697.96 260.035 698.162 275.126 698.213 289.947C698.248 300.091 698.198 310.452 694.916 320.05C694.033 322.172 693.411 324.392 693.063 326.663C692.864 328.95 693.53 331.472 695.383 332.827C696.458 333.53 697.687 333.962 698.965 334.085C704.651 334.92 710.384 333.406 715.984 332.11C730.992 328.634 746.299 326.645 761.576 324.661L787.176 321.337C789.011 321.213 790.807 320.749 792.472 319.968C797.157 317.404 797.601 310.357 794.692 305.878C793.298 303.731 791.33 301.969 790.158 299.693C788.986 297.417 788.887 294.233 790.904 292.656C795.007 289.449 793.783 283.499 793.979 278.294C794.526 263.742 794.452 249.183 793.757 234.62C793.551 231.605 793.503 228.581 793.612 225.562C794.067 220.444 795.013 215.383 796.436 210.447L804.214 179.819C802.182 176.608 798.292 174.57 794.606 173.645C790.92 172.72 787.081 172.448 783.451 171.323C776.015 169.019 769.395 163.171 761.629 163.716C761.041 163.727 760.464 163.868 759.937 164.129C758.186 165.122 758.463 167.646 758.351 169.656C758.103 174.102 754.833 177.819 751.221 180.425C747.609 183.031 743.484 184.931 740.167 187.902C739.579 188.345 739.097 188.914 738.758 189.567C738.419 190.22 738.23 190.941 738.205 191.676V191.676Z" fill="#49526A"/>
<path d="M635.455 220.728C633.735 221.844 631.908 222.784 630 223.535C628.132 224.09 626.368 224.947 624.775 226.07C624.041 226.705 623.426 227.465 622.958 228.315C622.08 229.872 621.637 231.635 621.673 233.422C621.709 235.209 622.225 236.953 623.165 238.473C624.106 239.992 625.437 241.232 627.02 242.061C628.603 242.891 630.379 243.28 632.164 243.189C634.536 242.923 636.841 242.236 638.971 241.159L657.261 233.234C660.357 231.892 663.701 230.32 665.164 227.28C665.335 226.997 665.398 226.661 665.342 226.335C665.195 225.99 664.928 225.71 664.591 225.545C660.466 222.866 656.858 219.464 653.941 215.503C653.191 214.484 652.272 212.079 651.212 211.468C647.34 209.238 638.553 218.717 635.455 220.728Z" fill="#E2BD96"/>
<path d="M830.982 214.224L837.725 221.927C839.173 223.581 840.622 225.237 841.941 226.994C845.182 231.46 847.781 236.357 849.664 241.544C851.13 245.39 852.347 249.487 851.835 253.571C851.494 255.664 850.929 257.715 850.148 259.687C848.912 263.48 847.38 267.17 845.566 270.723C844.04 273.422 842.317 276.005 840.41 278.45C835.189 285.369 829.476 291.904 823.316 298.002C821.011 300.284 820.044 303.974 819.041 307.059C817.19 312.748 812.785 317.18 808.526 321.382C807.158 322.827 805.645 324.129 804.012 325.267C801.565 326.843 798.705 327.657 795.796 327.607C794.522 327.616 793.26 327.355 792.095 326.841C789.18 325.457 787.699 322.087 787.395 318.874C787.124 315.959 787.612 313.024 788.813 310.354C792.683 301.782 802.619 298.068 809.643 291.813C813.761 288.146 816.911 283.54 820.017 278.983C822.127 276.138 823.888 273.05 825.264 269.786C826.832 265.601 826.222 260.646 827.592 256.392C828.171 254.594 829.201 252.97 829.824 251.186C830.447 249.403 830.604 247.285 829.514 245.742C828.692 244.761 827.644 243.994 826.461 243.507C821.974 241.229 816.949 238.299 816.09 233.341C815.748 230.591 816.466 227.815 818.099 225.576C819.726 223.368 821.627 221.375 823.757 219.647C825.72 217.911 829.02 215.96 830.982 214.224Z" fill="#E2BD96"/>
<path d="M631.126 231.481C629.936 229.075 628.447 226.621 626.044 225.426C624.88 224.92 623.624 224.656 622.354 224.651C621.084 224.646 619.827 224.899 618.658 225.395C616.328 226.399 614.147 227.718 612.175 229.315L606.363 233.599C605.045 234.463 603.879 235.54 602.912 236.784C601.995 238.294 601.384 239.969 601.115 241.715C600.102 245.696 599.793 249.824 600.201 253.912C601.123 260.466 605.075 266.188 609.425 271.177C612.142 274.295 615.498 277.441 619.632 277.574C621.416 277.632 623.401 276.928 624.143 275.305C624.4 274.661 624.537 273.975 624.546 273.282C624.992 265.971 622.377 258.83 619.327 252.171C618.355 250.428 617.781 248.49 617.645 246.498C617.623 246.163 617.71 245.83 617.893 245.548C618.156 245.275 618.508 245.103 618.886 245.064C623.06 244.238 630.249 247.481 633.178 242.846C635.076 239.841 632.475 234.206 631.126 231.481Z" fill="#E2BD96"/>
<path d="M717.031 124.44C716.975 123.841 717.063 123.238 717.287 122.68C717.956 121.498 719.702 121.82 721.019 122.152C726.316 123.487 731.897 122.278 737.35 122.59C742.804 122.902 748.947 125.629 750.044 130.98C754.002 128.174 757.414 124.668 760.112 120.635C761.626 118.37 762.945 115.775 762.739 113.059C762.442 109.141 759.155 106.211 756.111 103.726L747.038 96.3189C745.847 95.2245 744.471 94.35 742.975 93.7361C740.88 93.0201 738.595 93.3612 736.381 93.3626C729.776 93.3669 722.734 90.3611 716.86 93.3806C714.406 94.6419 712.56 96.8033 710.779 98.9109L702.681 108.497C702.072 109.108 701.626 109.863 701.387 110.692C701.156 111.862 701.757 113.017 701.967 114.191C702.349 116.332 701.427 118.618 702.136 120.674C703.313 124.088 707.459 124.572 709.993 126.529C710.938 127.258 712.418 129.731 713.543 129.701C715.574 129.646 716.978 126.018 717.031 124.44Z" fill="#3F3D56"/>
<path d="M661.954 195.505C660.907 196.18 659.988 197.036 659.24 198.032C658.289 199.469 658.096 201.284 657.279 202.801C655.532 206.049 651.444 207.204 648.894 209.869C648.489 210.235 648.207 210.718 648.088 211.251C648.076 211.974 648.319 212.678 648.773 213.241L661.07 232.572C665.164 232.933 669.092 230.368 673.188 230.708C674.717 230.835 676.282 231.363 677.749 230.912C678.799 230.446 679.783 229.844 680.676 229.122C683.119 227.576 686.374 227.396 688.424 225.358C690.392 223.402 690.643 220.341 690.619 217.566C690.652 215.157 690.407 212.751 689.888 210.398C688.078 202.978 682.403 197.284 678.845 190.711C677.113 187.511 676.171 185.638 672.505 187.835C668.82 190.043 665.422 192.969 661.954 195.505Z" fill="#49526A"/>
<path d="M811.296 185.729C813.607 187.229 815.69 189.054 817.482 191.147C819.355 193.563 820.416 196.519 822.216 198.99C823.96 201.385 826.334 203.24 828.313 205.445C831.313 208.79 833.345 212.871 835.341 216.896C830.466 223.254 825.151 229.261 819.435 234.874C818.799 235.623 817.96 236.174 817.02 236.461C816.38 236.529 815.733 236.438 815.137 236.195C814.542 235.952 814.015 235.565 813.605 235.069C812.72 234.14 812.092 232.995 811.245 232.03C809.247 229.969 806.584 228.681 803.727 228.394C800.896 228.12 798.047 228.081 795.21 228.277C794.587 228.346 793.957 228.24 793.39 227.971C792.97 227.68 792.628 227.289 792.398 226.832C789.069 221.167 790.139 214.054 791.314 207.589L794.009 192.754C794.4 189.92 795.154 187.149 796.252 184.508C797.273 182.327 799.556 178.627 802.363 179.28C805.193 179.939 808.915 184.017 811.296 185.729Z" fill="#49526A"/>
</g>
<defs>
<clipPath id="clip0">
<rect width="1013.45" height="610.281" fill="white"/>
</clipPath>
</defs>
</svg>
